<svg width="12" height="14" viewBox="0 0 12 14" fill="none" xmlns="http://www.w3.org/2000/svg">
<g clip-path="url(#clip0)">
<path d="M2.5 13.5967H0.5C0.224 13.5967 0 13.3429 0 13.0301V10.7639C0 10.4512 0.224 10.1974 0.5 10.1974H2.5C2.776 10.1974 3 10.4512 3 10.7639V13.0301C3 13.3429 2.776 13.5967 2.5 13.5967Z" fill="#26929A"/>
<path d="M2.5 8.49902H0.5C0.224 8.49902 0 8.24521 0 7.93247V5.66627C0 5.35354 0.224 5.09972 0.5 5.09972H2.5C2.776 5.09972 3 5.35354 3 5.66627V7.93247C3 8.24521 2.776 8.49902 2.5 8.49902Z" fill="#26929A"/>
<path d="M2.5 3.39746H0.5C0.224 3.39746 0 3.14365 0 2.83091V0.564709C0 0.251973 0.224 -0.00184155 0.5 -0.00184155H2.5C2.776 -0.00184155 3 0.251973 3 0.564709V2.83091C3 3.14365 2.776 3.39746 2.5 3.39746Z" fill="#26929A"/>
<path d="M7 13.5967H5C4.724 13.5967 4.5 13.3429 4.5 13.0301V10.7639C4.5 10.4512 4.724 10.1974 5 10.1974H7C7.276 10.1974 7.5 10.4512 7.5 10.7639V13.0301C7.5 13.3429 7.276 13.5967 7 13.5967Z" fill="#26929A"/>
<path d="M7 8.49902H5C4.724 8.49902 4.5 8.24521 4.5 7.93247V5.66627C4.5 5.35354 4.724 5.09972 5 5.09972H7C7.276 5.09972 7.5 5.35354 7.5 5.66627V7.93247C7.5 8.24521 7.276 8.49902 7 8.49902Z" fill="#26929A"/>
<path d="M7 3.39746H5C4.724 3.39746 4.5 3.14365 4.5 2.83091V0.564709C4.5 0.251973 4.724 -0.00184155 5 -0.00184155H7C7.276 -0.00184155 7.5 0.251973 7.5 0.564709V2.83091C7.5 3.14365 7.276 3.39746 7 3.39746Z" fill="#26929A"/>
<path d="M11.5 13.5967H9.5C9.224 13.5967 9 13.3429 9 13.0301V10.7639C9 10.4512 9.224 10.1974 9.5 10.1974H11.5C11.776 10.1974 12 10.4512 12 10.7639V13.0301C12 13.3429 11.776 13.5967 11.5 13.5967Z" fill="#26929A"/>
<path d="M11.5 8.49902H9.5C9.224 8.49902 9 8.24521 9 7.93247V5.66627C9 5.35354 9.224 5.09972 9.5 5.09972H11.5C11.776 5.09972 12 5.35354 12 5.66627V7.93247C12 8.24521 11.776 8.49902 11.5 8.49902Z" fill="#26929A"/>
<path d="M11.5 3.39746H9.5C9.224 3.39746 9 3.14365 9 2.83091V0.564709C9 0.251973 9.224 -0.00184155 9.5 -0.00184155H11.5C11.776 -0.00184155 12 0.251973 12 0.564709V2.83091C12 3.14365 11.776 3.39746 11.5 3.39746Z" fill="#26929A"/>
</g>
<defs>
<clipPath id="clip0">
<rect width="12" height="13.5972" fill="white" transform="matrix(1 0 0 -1 0 13.5967)"/>
</clipPath>
</defs>
</svg>
