<svg width="15" height="14" viewBox="0 0 15 14" fill="none" xmlns="http://www.w3.org/2000/svg">
<path d="M13.9125 0H8.3244C7.94069 0 7.4033 0.213284 7.13228 0.472973L0.203979 7.11154C0.0733405 7.23731 0 7.40752 0 7.58496C0 7.7624 0.0733405 7.93262 0.203979 8.05838L6.20093 13.8046C6.33218 13.9297 6.50983 14 6.69501 14C6.88019 14 7.05784 13.9297 7.18909 13.8046L14.1174 7.16598C14.3893 6.9054 14.611 6.39138 14.611 6.02371V0.669301C14.6103 0.492008 14.5364 0.322178 14.4056 0.196812C14.2748 0.0714467 14.0975 0.000704949 13.9125 0V0ZM10.4199 5.35441C10.2364 5.35435 10.0547 5.31965 9.88518 5.25231C9.71565 5.18496 9.56163 5.08628 9.4319 4.96189C9.30218 4.83751 9.19929 4.68986 9.12911 4.52738C9.05894 4.36489 9.02285 4.19076 9.02292 4.01491C9.02298 3.83907 9.05919 3.66495 9.12947 3.50251C9.19976 3.34008 9.30275 3.19249 9.43256 3.06819C9.56237 2.94389 9.71646 2.84531 9.88604 2.77807C10.0556 2.71083 10.2373 2.67625 10.4209 2.67631C10.7915 2.67643 11.1469 2.81762 11.4089 3.06882C11.6709 3.32003 11.818 3.66067 11.8179 4.0158C11.8178 4.37094 11.6704 4.71149 11.4082 4.96252C11.1461 5.21356 10.7906 5.35452 10.4199 5.35441Z" fill="#26929A"/>
</svg>
