<svg width="33" height="33" viewBox="0 0 33 33" fill="none" xmlns="http://www.w3.org/2000/svg">
<circle cx="16.5" cy="16.5" r="16.5" fill="#DF0096"/>
<g clip-path="url(#clip0)">
<path d="M20.2507 9H12.7509C10.6886 9 9.00098 10.6876 9.00098 12.7499V20.2501C9.00098 22.3118 10.6886 24 12.7509 24H20.2507C22.313 24 24.0006 22.3118 24.0006 20.2501V12.7499C24.0006 10.6876 22.313 9 20.2507 9ZM22.7506 20.2501C22.7506 21.6282 21.6296 22.75 20.2507 22.75H12.7509C11.3726 22.75 10.251 21.6282 10.251 20.2501V12.7499C10.251 11.3715 11.3726 10.25 12.7509 10.25H20.2507C21.6296 10.25 22.7506 11.3715 22.7506 12.7499V20.2501Z" fill="white"/>
<path d="M20.5625 13.375C21.0802 13.375 21.5 12.9552 21.5 12.4375C21.5 11.9197 21.0802 11.5 20.5625 11.5C20.0447 11.5 19.625 11.9197 19.625 12.4375C19.625 12.9552 20.0447 13.375 20.5625 13.375Z" fill="white"/>
<path d="M16.4999 12.75C14.4284 12.75 12.75 14.4286 12.75 16.4999C12.75 18.5704 14.4284 20.2502 16.4999 20.2502C18.5708 20.2502 20.2498 18.5704 20.2498 16.4999C20.2498 14.4286 18.5708 12.75 16.4999 12.75ZM16.4999 19.0002C15.1194 19.0002 14 17.8808 14 16.4999C14 15.119 15.1194 14 16.4999 14C17.8805 14 18.9998 15.119 18.9998 16.4999C18.9998 17.8808 17.8805 19.0002 16.4999 19.0002Z" fill="white"/>
</g>
<defs>
<clipPath id="clip0">
<rect width="15" height="15" fill="white" transform="translate(9 9)"/>
</clipPath>
</defs>
</svg>
