<svg width="77" height="82" viewBox="0 0 77 82" fill="none" xmlns="http://www.w3.org/2000/svg">
<path d="M34.521 80.3249H5.95587C3.79393 80.3249 2 78.4 2 76.0803V45.4302C2 43.1105 3.79393 41.1855 5.95587 41.1855H34.521C36.683 41.1855 38.4769 43.1105 38.4769 45.4302V76.0803C38.4769 78.4 36.729 80.3249 34.521 80.3249Z" fill="#00CDDC" stroke="#330000" stroke-width="3" stroke-miterlimit="10"/>
<path d="M71.0445 80.3249H42.4793C40.3174 80.3249 38.5234 78.4 38.5234 76.0803V45.4302C38.5234 43.1105 40.3174 41.1855 42.4793 41.1855H71.0445C73.2064 41.1855 75.0004 43.1105 75.0004 45.4302V76.0803C75.0004 78.4 73.2064 80.3249 71.0445 80.3249Z" fill="#FDF022" stroke="#330000" stroke-width="3" stroke-miterlimit="10"/>
<path d="M52.7827 41.1394H24.2176C22.0557 41.1394 20.2617 39.2145 20.2617 36.8947V6.24461C20.2617 3.92488 22.0557 2 24.2176 2H52.7827C54.9446 2 56.7386 3.92488 56.7386 6.24461V36.8947C56.7386 39.2145 54.9446 41.1394 52.7827 41.1394Z" fill="#FF774E" stroke="#330000" stroke-width="3" stroke-miterlimit="10"/>
<path d="M28.3575 71.8362H12.166C10.9241 71.8362 9.91211 70.7504 9.91211 69.4178V52.0444C9.91211 50.7118 10.9241 49.626 12.166 49.626H28.3575C29.5995 49.626 30.6115 50.7118 30.6115 52.0444V69.4178C30.5655 70.7504 29.5535 71.8362 28.3575 71.8362Z" fill="white" stroke="#330000" stroke-width="3" stroke-miterlimit="10"/>
<path d="M64.8341 71.8362H48.6426C47.4006 71.8362 46.3887 70.7504 46.3887 69.4178V52.0444C46.3887 50.7118 47.4006 49.626 48.6426 49.626H64.8341C66.0761 49.626 67.088 50.7118 67.088 52.0444V69.4178C67.088 70.7504 66.0761 71.8362 64.8341 71.8362Z" fill="white" stroke="#330000" stroke-width="3" stroke-miterlimit="10"/>
<path d="M46.5724 32.6477H30.3809C29.1389 32.6477 28.127 31.5619 28.127 30.2293V12.856C28.127 11.5233 29.1389 10.4375 30.3809 10.4375H46.5724C47.8143 10.4375 48.8263 11.5233 48.8263 12.856V30.2293C48.8263 31.5619 47.8143 32.6477 46.5724 32.6477Z" fill="white" stroke="#330000" stroke-width="3" stroke-miterlimit="10"/>
<path d="M36.6369 25.4949L35.6709 29.1966H32.543L36.6369 14.834H40.5927L44.7326 29.1966H41.4667L40.4547 25.4949H36.6369ZM39.9947 23.0764L39.1668 20.0164C38.9368 19.1773 38.7068 18.0915 38.4768 17.2524C38.2928 18.0915 38.0628 19.1773 37.8788 20.0164L37.0968 23.0764H39.9947Z" fill="#330000"/>
<path d="M15.3848 53.9221C16.1667 53.774 17.7767 53.626 19.2946 53.626C21.1346 53.626 22.2846 53.8234 23.2505 54.4157C24.1705 54.9586 24.8605 55.9457 24.8605 57.229C24.8605 58.5122 24.1705 59.6968 22.6525 60.289V60.3384C24.1705 60.7826 25.3205 62.0165 25.3205 63.892C25.3205 65.1753 24.7685 66.2118 23.9405 66.9521C22.9746 67.7912 21.3186 68.2354 18.6507 68.2354C17.1787 68.2354 16.0287 68.1367 15.3848 68.038V53.9221ZM18.3747 59.45H19.3867C20.9966 59.45 21.8246 58.759 21.8246 57.6732C21.8246 56.5873 21.0426 55.9951 19.6626 55.9951C19.0187 55.9951 18.6507 56.0444 18.3747 56.0938V59.45ZM18.3747 65.8169C18.6507 65.8663 19.0187 65.8663 19.5246 65.8663C20.9046 65.8663 22.1006 65.3234 22.1006 63.7933C22.1006 62.362 20.9046 61.7697 19.3867 61.7697H18.3747V65.8169Z" fill="#330000"/>
<path d="M61.7513 67.7448C61.1994 68.041 59.9574 68.3865 58.3015 68.3865C53.6556 68.3865 51.2637 65.277 51.2637 61.1805C51.2637 56.2942 54.5296 53.5303 58.5775 53.5303C60.1414 53.5303 61.3374 53.8758 61.8894 54.1719L61.2914 56.7384C60.6934 56.4423 59.8194 56.1955 58.7614 56.1955C56.3695 56.1955 54.4836 57.7749 54.4836 60.9337C54.4836 63.7963 56.0935 65.6225 58.7614 65.6225C59.6814 65.6225 60.6934 65.4251 61.2914 65.129L61.7513 67.7448Z" fill="#330000"/>
</svg>
