<svg width="96" height="97" viewBox="0 0 96 97" fill="none" xmlns="http://www.w3.org/2000/svg">
<path d="M44.8402 71.5578C46.0036 73.3924 50.7466 82.5652 40.0972 94.4227C39.7392 94.7807 39.1128 94.4675 39.2918 93.9753C40.6341 89.814 42.8266 80.5964 37.6809 74.869C37.4572 74.6453 37.5467 74.2426 37.8599 74.1083L44.2138 71.3789C44.4375 71.2894 44.7059 71.3789 44.8402 71.5578Z" fill="#FDF022" stroke="#330000" stroke-width="3" stroke-miterlimit="10"/>
<path d="M25.0191 51.738C23.1846 50.5746 14.0118 45.8316 2.15424 56.481C1.79627 56.839 2.10949 57.4654 2.60169 57.2864C6.76302 55.944 15.9806 53.7515 21.708 58.8972C21.9317 59.121 22.3344 59.0315 22.4687 58.7183L25.1981 52.3644C25.2876 52.0959 25.1981 51.8722 25.0191 51.738Z" fill="#FDF022" stroke="#330000" stroke-width="3" stroke-miterlimit="10"/>
<path d="M66.3861 51.5095C82.7418 35.1538 91.0994 16.9937 85.0534 10.9477C79.0074 4.9017 60.8472 13.2593 44.4915 29.615C28.1358 45.9706 19.7782 64.1307 25.8242 70.1767C31.8702 76.2227 50.0304 67.8651 66.3861 51.5095Z" fill="white" stroke="#330000" stroke-width="3" stroke-miterlimit="10"/>
<path d="M29.7563 72.1362C34.0899 67.8027 36.2997 62.9865 34.6921 61.3789C33.0845 59.7713 28.2682 61.9811 23.9346 66.3146C19.601 70.6481 17.3911 75.4643 18.9988 77.0719C20.6064 78.6795 25.4227 76.4697 29.7563 72.1362Z" fill="#FDF022" stroke="#330000" stroke-width="3" stroke-miterlimit="10"/>
<path d="M68.8243 27.2646C71.7328 30.173 77.4602 29.7703 84.4404 26.6829C87.5726 19.6131 88.0201 13.841 85.0669 10.8878C82.1584 7.97931 76.431 8.38201 69.4507 11.4694C66.3633 18.5392 65.9159 24.3561 68.8243 27.2646Z" fill="#FF774E" stroke="#330000" stroke-width="3" stroke-miterlimit="10"/>
<path d="M60.2329 42.1602C63.7174 42.1602 66.542 39.3355 66.542 35.8511C66.542 32.3667 63.7174 29.542 60.2329 29.542C56.7485 29.542 53.9238 32.3667 53.9238 35.8511C53.9238 39.3355 56.7485 42.1602 60.2329 42.1602Z" fill="#00CDDC" stroke="#330000" stroke-width="3" stroke-miterlimit="10"/>
<path d="M46.0044 56.3926C49.4888 56.3926 52.3135 53.5679 52.3135 50.0835C52.3135 46.5991 49.4888 43.7744 46.0044 43.7744C42.52 43.7744 39.6953 46.5991 39.6953 50.0835C39.6953 53.5679 42.52 56.3926 46.0044 56.3926Z" fill="#00CDDC" stroke="#330000" stroke-width="3" stroke-miterlimit="10"/>
</svg>
