<svg width="73" height="73" viewBox="0 0 73 73" fill="none" xmlns="http://www.w3.org/2000/svg">
<path d="M13.6875 23.9531H59.3125V68.4375C59.3125 69.0425 59.0722 69.6228 58.6443 70.0506C58.2165 70.4784 57.6363 70.7188 57.0312 70.7188H15.9688C15.3637 70.7188 14.7835 70.4784 14.3557 70.0506C13.9278 69.6228 13.6875 69.0425 13.6875 68.4375V23.9531Z" fill="#00CDDC"/>
<path d="M12.5469 14.8281H60.4531C61.0582 14.8281 61.6384 15.0685 62.0662 15.4963C62.494 15.9241 62.7344 16.5043 62.7344 17.1094V23.9531H10.2656V17.1094C10.2656 16.5043 10.506 15.9241 10.9338 15.4963C11.3616 15.0685 11.9418 14.8281 12.5469 14.8281Z" fill="#00CDDC"/>
<path d="M21.6719 10.2656H51.3281C51.9332 10.2656 52.5134 10.506 52.9412 10.9338C53.369 11.3616 53.6094 11.9418 53.6094 12.5469V14.8281H19.3906V12.5469C19.3906 11.9418 19.631 11.3616 20.0588 10.9338C20.4866 10.506 21.0668 10.2656 21.6719 10.2656Z" fill="#00CDDC"/>
<path d="M34.2188 27.375H38.7812V61.5938H34.2188V27.375Z" fill="#E0E0E2"/>
<path d="M21.6719 27.375H26.2344V61.5938H21.6719V27.375Z" fill="#E0E0E2"/>
<path d="M46.7656 27.375H51.3281V61.5938H46.7656V27.375Z" fill="#E0E0E2"/>
<path d="M60.4531 13.6875H54.75V12.5469C54.75 11.6393 54.3895 10.769 53.7478 10.1272C53.106 9.48552 52.2357 9.125 51.3281 9.125H47.9062V6.84375C47.9044 5.33174 47.303 3.88218 46.2338 2.81303C45.1647 1.74388 43.7151 1.14244 42.2031 1.14062H30.7969C29.2849 1.14244 27.8353 1.74388 26.7662 2.81303C25.697 3.88218 25.0956 5.33174 25.0938 6.84375V9.125H21.6719C20.7643 9.125 19.894 9.48552 19.2522 10.1272C18.6105 10.769 18.25 11.6393 18.25 12.5469V13.6875H12.5469C11.6393 13.6875 10.769 14.048 10.1272 14.6897C9.48552 15.3315 9.125 16.2018 9.125 17.1094V23.9531C9.125 24.2556 9.24517 24.5458 9.45908 24.7597C9.67299 24.9736 9.96311 25.0938 10.2656 25.0938H12.5469V68.4375C12.5469 69.345 12.9074 70.2154 13.5491 70.8571C14.1908 71.4989 15.0612 71.8594 15.9688 71.8594H57.0312C57.9388 71.8594 58.8092 71.4989 59.4509 70.8571C60.0926 70.2154 60.4531 69.345 60.4531 68.4375V25.0938H62.7344C63.0369 25.0938 63.327 24.9736 63.5409 24.7597C63.7548 24.5458 63.875 24.2556 63.875 23.9531V17.1094C63.875 16.2018 63.5145 15.3315 62.8728 14.6897C62.231 14.048 61.3607 13.6875 60.4531 13.6875ZM27.375 6.84375C27.375 5.93621 27.7355 5.06585 28.3772 4.42412C29.019 3.78239 29.8893 3.42188 30.7969 3.42188H42.2031C43.1107 3.42188 43.981 3.78239 44.6228 4.42412C45.2645 5.06585 45.625 5.93621 45.625 6.84375V9.125H27.375V6.84375ZM20.5312 12.5469C20.5312 12.2444 20.6514 11.9542 20.8653 11.7403C21.0792 11.5264 21.3694 11.4062 21.6719 11.4062H51.3281C51.6306 11.4062 51.9208 11.5264 52.1347 11.7403C52.3486 11.9542 52.4688 12.2444 52.4688 12.5469V13.6875H20.5312V12.5469ZM58.1719 68.4375C58.1719 68.74 58.0517 69.0301 57.8378 69.244C57.6239 69.458 57.3338 69.5781 57.0312 69.5781H15.9688C15.6662 69.5781 15.3761 69.458 15.1622 69.244C14.9483 69.0301 14.8281 68.74 14.8281 68.4375V25.0938H58.1719V68.4375ZM61.5938 22.8125H11.4062V17.1094C11.4062 16.8069 11.5264 16.5167 11.7403 16.3028C11.9542 16.0889 12.2444 15.9688 12.5469 15.9688H60.4531C60.7556 15.9688 61.0458 16.0889 61.2597 16.3028C61.4736 16.5167 61.5938 16.8069 61.5938 17.1094V22.8125Z" fill="#330000"/>
<path d="M34.2188 62.7344H38.7812C39.0838 62.7344 39.3739 62.6142 39.5878 62.4003C39.8017 62.1864 39.9219 61.8963 39.9219 61.5938V27.375C39.9219 27.0725 39.8017 26.7824 39.5878 26.5685C39.3739 26.3545 39.0838 26.2344 38.7812 26.2344H34.2188C33.9162 26.2344 33.6261 26.3545 33.4122 26.5685C33.1983 26.7824 33.0781 27.0725 33.0781 27.375V61.5938C33.0781 61.8963 33.1983 62.1864 33.4122 62.4003C33.6261 62.6142 33.9162 62.7344 34.2188 62.7344ZM35.3594 28.5156H37.6406V60.4531H35.3594V28.5156Z" fill="#330000"/>
<path d="M21.6719 62.7344H26.2344C26.5369 62.7344 26.827 62.6142 27.0409 62.4003C27.2548 62.1864 27.375 61.8963 27.375 61.5938V27.375C27.375 27.0725 27.2548 26.7824 27.0409 26.5685C26.827 26.3545 26.5369 26.2344 26.2344 26.2344H21.6719C21.3694 26.2344 21.0792 26.3545 20.8653 26.5685C20.6514 26.7824 20.5312 27.0725 20.5312 27.375V61.5938C20.5312 61.8963 20.6514 62.1864 20.8653 62.4003C21.0792 62.6142 21.3694 62.7344 21.6719 62.7344ZM22.8125 28.5156H25.0938V60.4531H22.8125V28.5156Z" fill="#330000"/>
<path d="M46.7656 62.7344H51.3281C51.6306 62.7344 51.9208 62.6142 52.1347 62.4003C52.3486 62.1864 52.4688 61.8963 52.4688 61.5938V27.375C52.4688 27.0725 52.3486 26.7824 52.1347 26.5685C51.9208 26.3545 51.6306 26.2344 51.3281 26.2344H46.7656C46.4631 26.2344 46.173 26.3545 45.9591 26.5685C45.7452 26.7824 45.625 27.0725 45.625 27.375V61.5938C45.625 61.8963 45.7452 62.1864 45.9591 62.4003C46.173 62.6142 46.4631 62.7344 46.7656 62.7344ZM47.9062 28.5156H50.1875V60.4531H47.9062V28.5156Z" fill="#330000"/>
<path d="M18.25 67.2969H27.375C27.6775 67.2969 27.9676 67.1767 28.1815 66.9628C28.3955 66.7489 28.5156 66.4588 28.5156 66.1562C28.5156 65.8537 28.3955 65.5636 28.1815 65.3497C27.9676 65.1358 27.6775 65.0156 27.375 65.0156H18.25C17.9475 65.0156 17.6574 65.1358 17.4435 65.3497C17.2295 65.5636 17.1094 65.8537 17.1094 66.1562C17.1094 66.4588 17.2295 66.7489 17.4435 66.9628C17.6574 67.1767 17.9475 67.2969 18.25 67.2969Z" fill="#330000"/>
<path d="M30.7969 67.2969H31.9375C32.24 67.2969 32.5301 67.1767 32.744 66.9628C32.958 66.7489 33.0781 66.4588 33.0781 66.1562C33.0781 65.8537 32.958 65.5636 32.744 65.3497C32.5301 65.1358 32.24 65.0156 31.9375 65.0156H30.7969C30.4944 65.0156 30.2042 65.1358 29.9903 65.3497C29.7764 65.5636 29.6562 65.8537 29.6562 66.1562C29.6562 66.4588 29.7764 66.7489 29.9903 66.9628C30.2042 67.1767 30.4944 67.2969 30.7969 67.2969Z" fill="#330000"/>
</svg>
