<svg width="71" height="71" viewBox="0 0 71 71" fill="none" xmlns="http://www.w3.org/2000/svg">
<path d="M63.2344 11.0938V67.6719H5.54688V11.0938L34.3906 4.4375L63.2344 11.0938Z" fill="#FF774E"/>
<path d="M14.4219 23.2969H54.3594V67.6719H14.4219V23.2969Z" fill="white"/>
<path d="M32.1719 17.75H36.6094C37.8348 17.75 38.8281 16.7566 38.8281 15.5312C38.8281 14.3059 37.8348 13.3125 36.6094 13.3125H32.1719C30.9465 13.3125 29.9531 14.3059 29.9531 15.5312C29.9531 16.7566 30.9465 17.75 32.1719 17.75Z" fill="#FF774E"/>
<path d="M66.5625 9.98438L34.3906 2.21875L2.21875 9.98438V14.4219L34.3906 6.65625L66.5625 14.4219V9.98438Z" fill="white"/>
<path d="M14.4219 23.2969H54.3594V42.1562H14.4219V23.2969Z" fill="#C9C9C8"/>
<path d="M42.1562 67.6719V49.9219H22.1875V32.1719H2.21875V67.6719H42.1562Z" fill="#FDF022"/>
<path d="M28.8438 49.9219H35.5V56.5781H28.8438V49.9219Z" fill="white"/>
<path d="M8.875 49.9219H15.5312V56.5781H8.875V49.9219Z" fill="white"/>
<path d="M8.875 32.1719H15.5312V38.8281H8.875V32.1719Z" fill="white"/>
<path d="M16.6406 62.125H18.8594V64.3437H16.6406V62.125Z" fill="#330000"/>
<path d="M42.1562 48.8125H23.2969V32.1719C23.2969 31.8777 23.18 31.5955 22.9719 31.3874C22.7639 31.1794 22.4817 31.0625 22.1875 31.0625H2.21875C1.92453 31.0625 1.64235 31.1794 1.4343 31.3874C1.22626 31.5955 1.10938 31.8777 1.10938 32.1719V67.6719C1.10938 67.9661 1.22626 68.2483 1.4343 68.4563C1.64235 68.6644 1.92453 68.7812 2.21875 68.7812H42.1562C42.4505 68.7812 42.7327 68.6644 42.9407 68.4563C43.1487 68.2483 43.2656 67.9661 43.2656 67.6719V49.9219C43.2656 49.6276 43.1487 49.3455 42.9407 49.1374C42.7327 48.9294 42.4505 48.8125 42.1562 48.8125ZM29.9531 51.0312H34.3906V55.4687H29.9531V51.0312ZM9.98438 33.2812H14.4219V37.7187H9.98438V33.2812ZM3.32812 33.2812H7.76562V38.8281C7.76562 39.1223 7.88251 39.4045 8.09055 39.6126C8.2986 39.8206 8.58078 39.9375 8.875 39.9375H15.5312C15.8255 39.9375 16.1076 39.8206 16.3157 39.6126C16.5237 39.4045 16.6406 39.1223 16.6406 38.8281V33.2812H21.0781V48.8125H3.32812V33.2812ZM9.98438 51.0312H14.4219V55.4687H9.98438V51.0312ZM3.32812 51.0312H7.76562V56.5781C7.76562 56.8723 7.88251 57.1545 8.09055 57.3626C8.2986 57.5706 8.58078 57.6875 8.875 57.6875H15.5312C15.8255 57.6875 16.1076 57.5706 16.3157 57.3626C16.5237 57.1545 16.6406 56.8723 16.6406 56.5781V51.0312H21.0781V66.5625H3.32812V51.0312ZM41.0469 66.5625H23.2969V51.0312H27.7344V56.5781C27.7344 56.8723 27.8513 57.1545 28.0593 57.3626C28.2674 57.5706 28.5495 57.6875 28.8438 57.6875H35.5C35.7942 57.6875 36.0764 57.5706 36.2844 57.3626C36.4925 57.1545 36.6094 56.8723 36.6094 56.5781V51.0312H41.0469V66.5625Z" fill="#330000"/>
<path d="M36.6094 62.125H38.8281V64.3437H36.6094V62.125Z" fill="#330000"/>
<path d="M16.6406 44.375H18.8594V46.5938H16.6406V44.375Z" fill="#330000"/>
<path d="M66.3024 15.4997C66.3876 15.5204 66.475 15.5308 66.5627 15.5308C66.7571 15.5306 66.948 15.4796 67.1165 15.3826C67.285 15.2857 67.4252 15.1463 67.5231 14.9783C67.6238 14.801 67.6753 14.5999 67.672 14.3959V9.98392C67.672 9.73498 67.5883 9.49329 67.4342 9.2977C67.2802 9.10212 67.0649 8.96402 66.8229 8.90561L34.6511 1.13999C34.48 1.09852 34.3015 1.09852 34.1305 1.13999L1.95862 8.90561C1.71663 8.96402 1.50131 9.10212 1.34731 9.2977C1.1933 9.49329 1.10955 9.73498 1.10953 9.98392V14.3899C1.10574 14.6222 1.17214 14.8503 1.30006 15.0442C1.427 15.2309 1.60779 15.3745 1.81836 15.4558C2.02893 15.5372 2.25929 15.5525 2.47878 15.4997L4.43765 15.027V28.8433H6.6564V14.4915L34.3908 7.79693L62.1252 14.4915V66.562H55.4689V23.2964C55.4689 23.0022 55.352 22.72 55.144 22.512C54.9359 22.3039 54.6538 22.187 54.3595 22.187H14.422C14.1278 22.187 13.8456 22.3039 13.6376 22.512C13.4295 22.72 13.3127 23.0022 13.3127 23.2964V27.7339C13.3127 28.0281 13.4295 28.3103 13.6376 28.5184C13.8456 28.7264 14.1278 28.8433 14.422 28.8433H53.2502V31.062H25.5158V33.2808H53.2502V35.4995H25.5158V37.7183H53.2502V39.937H25.5158V42.1558H53.2502V66.562H45.4845V68.7808H67.672V66.562H64.3439V15.027L66.3024 15.4997ZM15.5314 26.6245V24.4058H53.2502V26.6245H15.5314ZM34.3908 5.54642C34.3031 5.54638 34.2157 5.55681 34.1305 5.57749L3.32828 13.0124V10.8576L34.3908 3.35957L65.4533 10.8576V13.0125L34.6511 5.57749C34.5658 5.55681 34.4785 5.54638 34.3908 5.54642Z" fill="#330000"/>
<path d="M36.6094 18.8594C37.492 18.8594 38.3386 18.5087 38.9627 17.8846C39.5869 17.2604 39.9375 16.4139 39.9375 15.5313C39.9375 14.6486 39.5869 13.8021 38.9627 13.1779C38.3386 12.5538 37.492 12.2031 36.6094 12.2031H32.1719C31.2892 12.2031 30.4427 12.5538 29.8185 13.1779C29.1944 13.8021 28.8438 14.6486 28.8438 15.5313C28.8438 16.4139 29.1944 17.2604 29.8185 17.8846C30.4427 18.5087 31.2892 18.8594 32.1719 18.8594H36.6094ZM31.0625 15.5313C31.0628 15.2371 31.1798 14.9551 31.3878 14.7472C31.5958 14.5392 31.8778 14.4222 32.1719 14.4219H36.6094C36.9036 14.4219 37.1858 14.5388 37.3938 14.7468C37.6019 14.9549 37.7187 15.237 37.7187 15.5313C37.7187 15.8255 37.6019 16.1076 37.3938 16.3157C37.1858 16.5237 36.9036 16.6406 36.6094 16.6406H32.1719C31.8778 16.6403 31.5958 16.5233 31.3878 16.3153C31.1798 16.1074 31.0628 15.8254 31.0625 15.5313Z" fill="#330000"/>
</svg>
