<svg width="70" height="70" viewBox="0 0 70 70" fill="none" xmlns="http://www.w3.org/2000/svg">
<path d="M50.3125 51.4062V55.7812C50.3125 54.7422 49.0328 53.8234 47.0312 53.2219V52.1391V18.5938H42.6562L54.6875 3.28125L66.7188 18.5938H62.3438V48.3656C61.3266 48.2125 60.2219 48.125 59.0625 48.125C54.2281 48.125 50.3125 49.5906 50.3125 51.4062Z" fill="#99B144"/>
<path d="M42.0984 20.9234C41.7922 18.9547 40.0969 17.5 38.0953 17.5H12.2172C10.2156 17.5 8.52031 18.9547 8.21406 20.9234L2.24219 58.7453C2.20937 58.9531 2.1875 59.1719 2.1875 59.3797C2.1875 60.5063 2.64687 61.5125 3.37969 62.2453C4.1125 62.9781 5.11875 63.4375 6.24531 63.4375H32.8125L47.0312 53.2219V52.1391L42.0984 20.9234Z" fill="#00CDDC"/>
<path d="M36.0938 17.5V24.0625H31.7188V17.5V13.125C31.7188 11.3094 30.9859 9.66875 29.7937 8.4875C28.6125 7.29531 26.9719 6.5625 25.1562 6.5625C21.5359 6.5625 18.5938 9.50469 18.5938 13.125V17.5V24.0625H14.2188V17.5V13.125C14.2188 7.0875 19.1188 2.1875 25.1562 2.1875C28.175 2.1875 30.9094 3.4125 32.8891 5.39219C34.8687 7.37187 36.0938 10.1062 36.0938 13.125V17.5Z" fill="#00CDDC"/>
<path d="M32.8125 55.7812V59.0625H13.125C11.9219 59.0625 10.9375 58.0781 10.9375 56.875V32.8125C10.9375 31.6094 11.9219 30.625 13.125 30.625H37.1875C38.3906 30.625 39.375 31.6094 39.375 32.8125V52.5984V52.6094C35.6016 52.9703 32.8125 54.25 32.8125 55.7812Z" fill="white"/>
<path d="M25.1562 52.5L28.4375 41.5625H35L26.25 52.5H25.1562Z" fill="#4FC1E9"/>
<path d="M21.875 41.5625L25.1562 52.5H24.0625L15.3125 41.5625H21.875Z" fill="#4FC1E9"/>
<path d="M31.7188 35L28.4375 41.5625L25.1562 35H31.7188Z" fill="#4FC1E9"/>
<path d="M25.1562 35L21.875 41.5625L18.5938 35H25.1562Z" fill="#4FC1E9"/>
<path d="M28.4375 41.5625L25.1562 52.5L21.875 41.5625H28.4375Z" fill="#69D6F4"/>
<path d="M31.7188 35L35 41.5625H28.4375L31.7188 35Z" fill="#69D6F4"/>
<path d="M25.1562 35L28.4375 41.5625H21.875L25.1562 35Z" fill="#69D6F4"/>
<path d="M18.5938 35L21.875 41.5625H15.3125L18.5938 35Z" fill="#69D6F4"/>
<path d="M63.4375 63C62.1469 63.2734 60.6594 63.4375 59.0625 63.4375C57.4656 63.4375 55.9781 63.2734 54.6875 63C52.0734 62.4312 50.3125 61.3703 50.3125 60.1562V64.5312C50.3125 65.7453 52.0734 66.8062 54.6875 67.375C55.9781 67.6484 57.4656 67.8125 59.0625 67.8125C60.6594 67.8125 62.1469 67.6484 63.4375 67.375C66.0516 66.8062 67.8125 65.7453 67.8125 64.5312V60.1562C67.8125 61.3703 66.0516 62.4312 63.4375 63Z" fill="#FDF022"/>
<path d="M63.4375 58.625C62.1469 58.8984 60.6594 59.0625 59.0625 59.0625C57.4656 59.0625 55.9781 58.8984 54.6875 58.625C52.0734 58.0562 50.3125 56.9953 50.3125 55.7812V60.1562C50.3125 61.3703 52.0734 62.4312 54.6875 63C55.9781 63.2734 57.4656 63.4375 59.0625 63.4375C60.6594 63.4375 62.1469 63.2734 63.4375 63C66.0516 62.4312 67.8125 61.3703 67.8125 60.1562V55.7812C67.8125 56.9953 66.0516 58.0562 63.4375 58.625Z" fill="#FDF022"/>
<path d="M63.4375 54.25C62.1469 54.5234 60.6594 54.6875 59.0625 54.6875C57.4656 54.6875 55.9781 54.5234 54.6875 54.25C52.0734 53.6812 50.3125 52.6203 50.3125 51.4062V55.7812C50.3125 56.9953 52.0734 58.0562 54.6875 58.625C55.9781 58.8984 57.4656 59.0625 59.0625 59.0625C60.6594 59.0625 62.1469 58.8984 63.4375 58.625C66.0516 58.0562 67.8125 56.9953 67.8125 55.7812V51.4062C67.8125 52.6203 66.0516 53.6812 63.4375 54.25Z" fill="#FDF022"/>
<path d="M45.9375 63C44.6469 63.2734 43.1594 63.4375 41.5625 63.4375C39.9656 63.4375 38.4781 63.2734 37.1875 63C34.5734 62.4312 32.8125 61.3703 32.8125 60.1562V64.5312C32.8125 65.7453 34.5734 66.8062 37.1875 67.375C38.4781 67.6484 39.9656 67.8125 41.5625 67.8125C43.1594 67.8125 44.6469 67.6484 45.9375 67.375C48.5516 66.8062 50.3125 65.7453 50.3125 64.5312V60.1562C50.3125 61.3703 48.5516 62.4312 45.9375 63Z" fill="#FDF022"/>
<path d="M45.9375 58.625C44.6469 58.8984 43.1594 59.0625 41.5625 59.0625C39.9656 59.0625 38.4781 58.8984 37.1875 58.625C34.5734 58.0562 32.8125 56.9953 32.8125 55.7812V60.1562C32.8125 61.3703 34.5734 62.4312 37.1875 63C38.4781 63.2734 39.9656 63.4375 41.5625 63.4375C43.1594 63.4375 44.6469 63.2734 45.9375 63C48.5516 62.4312 50.3125 61.3703 50.3125 60.1562V55.7812C50.3125 56.9953 48.5516 58.0562 45.9375 58.625Z" fill="#FDF022"/>
<path d="M47.0312 53.2219C49.0328 53.8234 50.3125 54.7422 50.3125 55.7812C50.3125 56.9953 48.5516 58.0562 45.9375 58.625C44.6469 58.8984 43.1594 59.0625 41.5625 59.0625C39.9656 59.0625 38.4781 58.8984 37.1875 58.625C34.5734 58.0562 32.8125 56.9953 32.8125 55.7812C32.8125 54.25 35.6016 52.9703 39.375 52.6094C40.075 52.5328 40.8078 52.5 41.5625 52.5C43.6297 52.5 45.5328 52.7734 47.0312 53.2219Z" fill="#FDF022"/>
<path d="M67.8125 51.4062C67.8125 52.6203 66.0516 53.6812 63.4375 54.25C62.1469 54.5234 60.6594 54.6875 59.0625 54.6875C57.4656 54.6875 55.9781 54.5234 54.6875 54.25C52.0734 53.6812 50.3125 52.6203 50.3125 51.4062C50.3125 49.5906 54.2281 48.125 59.0625 48.125C60.2219 48.125 61.3266 48.2125 62.3438 48.3656C65.5484 48.8469 67.8125 50.0281 67.8125 51.4062Z" fill="#FDF022"/>
<path d="M17.9179 33.9062L14.022 41.6992L23.5376 53.5938H26.7762L36.2918 41.6992L32.3948 33.9062H17.9179ZM26.9676 42.6562L25.1563 48.6938L23.3451 42.6562H26.9676ZM23.6448 40.4688L25.1563 37.4456L26.6679 40.4688H23.6448ZM26.926 36.0938H29.9492L28.4376 39.1169L26.926 36.0938ZM21.8751 39.1169L20.3635 36.0938H23.3867L21.8751 39.1169ZM20.1054 40.4688H17.0823L18.5938 37.4456L20.1054 40.4688ZM21.0613 42.6562L23.1449 49.6027L17.5887 42.6562H21.0613ZM29.2513 42.6562H32.724L27.1678 49.6027L29.2513 42.6562ZM30.2073 40.4688L31.7188 37.4456L33.2304 40.4688H30.2073Z" fill="black"/>
<path d="M63.4375 47.4534V44.8438H61.25V47.1362C60.5303 47.0695 59.7964 47.0312 59.0625 47.0312C54.1701 47.0312 49.2187 48.5341 49.2187 51.4062V52.9375C48.883 52.7592 48.5176 52.5952 48.125 52.4475V17.5H44.9072L54.6875 5.05094L64.4678 17.5H61.25V38.2812H63.4375V19.6875H68.9697L54.6875 1.51156L41.7648 17.9583C40.8264 17.0002 39.5336 16.4062 38.0964 16.4062H37.1875V13.125C37.1875 6.49141 31.7898 1.09375 25.1562 1.09375C18.5227 1.09375 13.125 6.49141 13.125 13.125V16.4062H12.2161C9.66547 16.4062 7.52609 18.235 7.13016 20.7539L1.15609 58.5834C1.11563 58.847 1.09375 59.1139 1.09375 59.3808C1.09375 62.2212 3.40375 64.5312 6.24422 64.5312H31.7187C31.7187 67.4034 36.6701 68.9062 41.5625 68.9062C45.0647 68.9062 48.5876 68.1319 50.3125 66.64C52.0373 68.1319 55.5603 68.9062 59.0625 68.9062C63.9548 68.9062 68.9062 67.4034 68.9062 64.5312V51.4062C68.9062 49.4156 66.5262 48.0845 63.4375 47.4534ZM38.2812 51.6414C34.6795 52.1642 31.7187 53.562 31.7187 55.7812V57.9688H13.125C12.5212 57.9688 12.0312 57.4787 12.0312 56.875V32.8125C12.0312 32.2087 12.5212 31.7188 13.125 31.7188H37.1875C37.7912 31.7188 38.2812 32.2087 38.2812 32.8125V51.6414ZM33.9062 58.625C34.5384 58.9608 35.2778 59.2441 36.0937 59.4694V61.5628C34.6598 61.0794 33.9062 60.4909 33.9062 60.1562V58.625ZM38.2812 59.9211C38.9922 60.0239 39.7261 60.0939 40.4687 60.1289V62.3153C39.6714 62.277 38.9386 62.2005 38.2812 62.0933V59.9211ZM40.4687 64.5039V66.6903C39.6714 66.652 38.9386 66.5755 38.2812 66.4683V64.2961C38.9922 64.3989 39.7261 64.4689 40.4687 64.5039ZM42.6562 64.5039C43.3989 64.47 44.1328 64.4 44.8437 64.2961V66.4683C44.1864 66.5755 43.4536 66.652 42.6562 66.6903V64.5039ZM42.6562 62.3153V60.1289C43.3989 60.095 44.1328 60.025 44.8437 59.9211V62.0933C44.1864 62.2005 43.4536 62.277 42.6562 62.3153ZM47.0312 59.4694C47.8472 59.243 48.5866 58.9608 49.2187 58.625V60.1562C49.2187 60.4909 48.4651 61.0794 47.0312 61.5628V59.4694ZM51.4062 58.625C52.0384 58.9608 52.7778 59.2441 53.5937 59.4694V61.5628C52.1598 61.0794 51.4062 60.4909 51.4062 60.1562V58.625ZM55.7812 59.9211C56.4922 60.0239 57.2261 60.0939 57.9687 60.1289V62.3153C57.1714 62.277 56.4386 62.2005 55.7812 62.0933V59.9211ZM57.9687 64.5039V66.6903C57.1714 66.652 56.4386 66.5755 55.7812 66.4683V64.2961C56.4922 64.3989 57.2261 64.4689 57.9687 64.5039ZM60.1562 64.5039C60.8989 64.47 61.6328 64.4 62.3437 64.2961V66.4683C61.6864 66.5755 60.9536 66.652 60.1562 66.6903V64.5039ZM60.1562 62.3153V60.1289C60.8989 60.095 61.6328 60.025 62.3437 59.9211V62.0933C61.6864 62.2005 60.9536 62.277 60.1562 62.3153ZM60.1562 57.9403V55.7539C60.8989 55.72 61.6328 55.65 62.3437 55.5461V57.7183C61.6864 57.8255 60.9536 57.902 60.1562 57.9403ZM57.9687 57.9403C57.1714 57.902 56.4386 57.8255 55.7812 57.7183V55.5461C56.4922 55.6489 57.2261 55.7189 57.9687 55.7539V57.9403ZM53.5937 57.1878C52.1598 56.7044 51.4062 56.1159 51.4062 55.7812V54.25C52.0384 54.5858 52.7778 54.8691 53.5937 55.0944V57.1878ZM49.2187 55.7812C49.2187 56.4156 46.5358 57.9688 41.5625 57.9688C36.5892 57.9688 33.9062 56.4156 33.9062 55.7812C33.9062 55.1469 36.5892 53.5938 41.5625 53.5938C46.5358 53.5938 49.2187 55.1469 49.2187 55.7812ZM45.9375 19.6875V38.197L43.1834 20.755C43.1244 20.3809 43.0161 20.0277 42.8848 19.6875H45.9375ZM25.1562 3.28125C30.5845 3.28125 35 7.69672 35 13.125V22.9688H32.8125V13.125C32.8125 8.90422 29.377 5.46875 25.1562 5.46875C20.9355 5.46875 17.5 8.90422 17.5 13.125V22.9688H15.3125V13.125C15.3125 7.69672 19.728 3.28125 25.1562 3.28125ZM30.625 16.4062H19.6875V13.125C19.6875 10.1095 22.1408 7.65625 25.1562 7.65625C28.1717 7.65625 30.625 10.1095 30.625 13.125V16.4062ZM6.24422 62.3438C4.61016 62.3438 3.28125 61.0148 3.28125 59.3808C3.28125 59.2244 3.29437 59.0691 3.31625 58.9192L9.29031 21.0941C9.51781 19.6459 10.7494 18.5938 12.2161 18.5938H13.125V22.9688H10.9375V25.1562H21.875V22.9688H19.6875V18.5938H30.625V22.9688H28.4375V25.1562H39.375V22.9688H37.1875V18.5938H38.0964C39.5631 18.5938 40.7947 19.6459 41.0233 21.0952L45.8741 51.8164C44.5233 51.5462 43.0412 51.4062 41.5625 51.4062C41.1972 51.4062 40.833 51.4172 40.4687 51.4336V32.8125C40.4687 31.0034 38.9966 29.5312 37.1875 29.5312H13.125C11.3159 29.5312 9.84375 31.0034 9.84375 32.8125V56.875C9.84375 58.6841 11.3159 60.1562 13.125 60.1562H31.7187V62.3438H6.24422ZM33.9062 64.5312V63C34.5384 63.3358 35.2778 63.6191 36.0937 63.8444V65.9378C34.6598 65.4544 33.9062 64.8659 33.9062 64.5312ZM47.0312 65.9378V63.8444C47.8472 63.618 48.5866 63.3358 49.2187 63V64.5312C49.2187 64.8659 48.4651 65.4544 47.0312 65.9378ZM51.4062 64.5312V63C52.0384 63.3358 52.7778 63.6191 53.5937 63.8444V65.9378C52.1598 65.4544 51.4062 64.8659 51.4062 64.5312ZM64.5312 65.9378V63.8444C65.3472 63.618 66.0865 63.3358 66.7187 63V64.5312C66.7187 64.8659 65.9651 65.4544 64.5312 65.9378ZM64.5312 61.5628V59.4694C65.3472 59.243 66.0865 58.9608 66.7187 58.625V60.1562C66.7187 60.4909 65.9651 61.0794 64.5312 61.5628ZM64.5312 57.1878V55.0944C65.3472 54.868 66.0865 54.5858 66.7187 54.25V55.7812C66.7187 56.1159 65.9651 56.7044 64.5312 57.1878ZM59.0625 53.5938C54.0892 53.5938 51.4062 52.0406 51.4062 51.4062C51.4062 50.7719 54.0892 49.2188 59.0625 49.2188C64.0358 49.2188 66.7187 50.7719 66.7187 51.4062C66.7187 52.0406 64.0358 53.5938 59.0625 53.5938Z" fill="#330000"/>
<path d="M61.25 40.4688H63.4375V42.6562H61.25V40.4688Z" fill="black"/>
</svg>
