<svg width="68" height="68" viewBox="0 0 68 68" fill="none" xmlns="http://www.w3.org/2000/svg">
<g clip-path="url(#clip0)">
<path d="M61.2832 36.5284C59.4767 33.7103 58.0059 30.6867 57.0596 27.4753C55.0467 20.6438 50.0828 15.0776 43.6435 12.2507C43.1714 12.0432 43.1019 11.4076 43.5179 11.1031C45.9298 9.33813 47.2279 7.16956 46.4948 5.87878C45.631 4.35715 42.2723 4.63315 38.993 6.49512C38.3326 6.87021 37.7266 7.28162 37.1855 7.71066C38.4358 4.72809 38.2973 1.86224 36.8073 1.15512C35.227 0.404419 32.7243 2.36704 31.2183 5.53897C30.4707 7.11249 30.1101 8.68808 30.1288 9.96796C30.1335 10.2917 29.9073 10.5729 29.5887 10.632C20.6846 12.2751 13.4997 18.8207 10.9374 27.3659C9.98279 30.5482 8.61472 33.5904 6.78751 36.365C5.13617 38.8723 4.18106 41.8762 4.18262 45.1041C4.19611 74.3021 63.7682 74.3021 63.7817 45.1041C63.7833 41.9462 62.8691 39.0025 61.2832 36.5284Z" fill="#FDF022"/>
<path d="M47.0605 36.0969C47.0605 37.6471 45.804 38.9036 44.2544 38.9036C42.7042 38.9036 41.4492 37.6471 41.4492 36.0969C41.4492 35.3203 41.7641 34.6173 42.2741 34.1089H46.2346C46.7446 34.6173 47.0605 35.3203 47.0605 36.0969Z" fill="#353535"/>
<path d="M23.3535 36.0969C23.3535 37.6471 22.097 38.9036 20.5473 38.9036C18.9972 38.9036 17.7422 37.6471 17.7422 36.0969C17.7422 35.3203 18.0571 34.6173 18.5671 34.1089H22.5276C23.0376 34.6173 23.3535 35.3203 23.3535 36.0969Z" fill="#353535"/>
<path d="M62.1205 35.9933C60.2606 33.0917 58.879 30.1319 58.0142 27.196C55.9753 20.2784 51.0846 14.612 44.5508 11.5708C47.1749 9.4889 48.3017 7.04795 47.3606 5.39039C46.2286 3.39664 42.6375 3.42518 38.899 5.41321C39.3104 2.96344 38.7242 0.966069 37.2347 0.258427C36.111 -0.275417 34.7388 0.0223737 33.3702 1.09525C32.1956 2.01664 31.1118 3.44385 30.3186 5.11438C29.5809 6.66819 29.1643 8.28684 29.1337 9.70731C26.0826 10.3055 23.2022 11.4557 20.5688 13.1283C20.1045 13.4235 19.967 14.0388 20.2617 14.5036C20.5569 14.9674 21.1727 15.1054 21.6365 14.8102C24.1324 13.2248 26.8691 12.1498 29.7697 11.6144C30.5666 11.4676 31.1362 10.7698 31.1248 9.95633C31.1077 8.77088 31.4605 7.35456 32.1183 5.96936C32.772 4.59195 33.6768 3.38678 34.5997 2.66306C35.31 2.10587 35.9927 1.87397 36.3803 2.05814C36.7419 2.22986 36.9847 2.82026 37.0293 3.63736C37.0879 4.70505 36.8171 6.01606 36.2666 7.32914C36.0913 7.74833 36.2215 8.2334 36.5841 8.50785C36.9463 8.78229 37.4485 8.77659 37.8049 8.49436C38.3211 8.08451 38.8866 7.70423 39.4847 7.36493C42.5332 5.6337 45.2014 5.62229 45.6284 6.37403C45.9568 6.95249 45.2019 8.63962 42.9296 10.3024C42.4435 10.6583 42.1918 11.2274 42.2572 11.825C42.3226 12.4222 42.6909 12.9233 43.2429 13.1656C49.4913 15.909 54.1787 21.2283 56.1034 27.7594C57.0217 30.8759 58.4821 34.0079 60.4437 37.0682C61.9762 39.4599 62.7861 42.2391 62.7845 45.106C62.7809 53.207 57.9618 58.0552 53.9198 60.6954C48.6763 64.121 41.5952 66.0074 33.9824 66.0074C26.369 66.0074 19.2884 64.121 14.0444 60.6954C10.0024 58.0552 5.18332 53.207 5.17969 45.106C5.17865 42.1743 6.02222 39.3416 7.62064 36.9147C9.44162 34.1495 10.8787 31.0341 11.8924 27.6546C13.1142 23.579 15.4493 19.9193 18.6451 17.0706C19.0555 16.7049 19.0918 16.075 18.7255 15.6642C18.3593 15.2538 17.73 15.2175 17.3191 15.5837C13.8488 18.6773 11.3124 22.6534 9.98377 27.0824C9.02606 30.2761 7.67148 33.2156 5.95685 35.819C4.14365 38.5722 3.18595 41.7841 3.1875 45.1065C3.19061 52.2239 6.568 58.1911 12.9549 62.3633C18.519 65.998 25.9866 67.9995 33.9818 67.9995C41.9776 67.9995 49.4452 65.998 55.0093 62.3628C61.3957 58.1911 64.7731 52.2239 64.7767 45.1065C64.7783 41.8578 63.8595 38.7061 62.1205 35.9933Z" fill="#330000"/>
<path d="M52.1469 34.1094C52.1469 33.5589 51.7007 33.1133 51.1508 33.1133C47.7703 33.1133 43.776 33.1133 40.5195 33.1133C39.9691 33.1133 39.5234 33.5589 39.5234 34.1094C39.5234 34.6593 39.9691 35.1055 40.5195 35.1055H40.5839C40.4983 35.4245 40.4531 35.7576 40.4531 36.0974C40.4531 38.1939 42.1579 39.8997 44.2538 39.8997C46.3503 39.8997 48.0561 38.1939 48.0561 36.0974C48.0561 35.7576 48.011 35.4251 47.9249 35.1055H51.1508C51.7007 35.105 52.1469 34.6593 52.1469 34.1094ZM46.0639 36.0974C46.0639 37.0951 45.252 37.9075 44.2538 37.9075C43.2567 37.9075 42.4453 37.0951 42.4453 36.0974C42.4453 35.7394 42.548 35.397 42.74 35.105H45.7682C45.9607 35.3976 46.0639 35.7394 46.0639 36.0974Z" fill="#330000"/>
<path d="M28.4408 34.1094C28.4408 33.5589 27.9946 33.1133 27.4447 33.1133C24.8549 33.1133 18.9655 33.1133 16.8135 33.1133C16.2635 33.1133 15.8174 33.5589 15.8174 34.1094C15.8174 34.6593 16.2635 35.1055 16.8135 35.1055H16.8778C16.7922 35.4245 16.7471 35.7576 16.7471 36.0974C16.7471 38.1939 18.4524 39.8997 20.5483 39.8997C22.6448 39.8997 24.3506 38.1939 24.3506 36.0974C24.3506 35.7576 24.3049 35.4251 24.2193 35.1055H27.4447C27.9951 35.105 28.4408 34.6593 28.4408 34.1094ZM22.3584 36.0974C22.3584 37.0951 21.5465 37.9075 20.5483 37.9075C19.5507 37.9075 18.7393 37.0951 18.7393 36.0974C18.7393 35.7394 18.842 35.397 19.0339 35.105H22.0627C22.2552 35.3976 22.3584 35.7394 22.3584 36.0974Z" fill="#330000"/>
<path d="M30.6561 50.704C30.3121 51.1336 30.3817 51.7603 30.8112 52.1042C30.9949 52.2511 31.2149 52.3227 31.4333 52.3227C31.7254 52.3227 32.0143 52.195 32.2109 51.9491C33.4364 50.4192 34.7027 48.8374 36.2197 47.6255C37.3533 46.7202 39.1364 45.6364 41.1976 45.6172C42.9952 45.5995 44.6834 46.5178 45.39 47.8994C45.6401 48.3896 46.2403 48.5832 46.7301 48.3331C47.2198 48.083 47.4143 47.4828 47.1638 46.993C46.1314 44.9723 43.7589 43.625 41.2448 43.625C41.2225 43.625 41.2007 43.625 41.1789 43.625C38.5496 43.6499 36.3546 44.9677 34.9767 46.0685C33.2864 47.4195 31.9495 49.089 30.6561 50.704Z" fill="#330000"/>
<path d="M41.1626 46.7153C40.1099 46.7252 39.0469 47.0344 38.0021 47.6331C37.5253 47.907 37.3598 48.5156 37.6337 48.9929C37.8174 49.3135 38.153 49.4935 38.4985 49.4935C38.6666 49.4935 38.8368 49.451 38.993 49.3612C39.738 48.9342 40.4746 48.7137 41.1818 48.707C41.7063 48.7034 42.2458 48.8388 42.7034 49.093C43.1843 49.3602 43.7908 49.1869 44.058 48.706C44.3247 48.225 44.1514 47.6186 43.6705 47.3514C42.9057 46.9265 42.0393 46.7029 41.1626 46.7153Z" fill="#330000"/>
</g>
<defs>
<clipPath id="clip0">
<rect width="68" height="68" fill="white"/>
</clipPath>
</defs>
</svg>
