<svg width="275" height="151" viewBox="0 0 275 151" fill="none" xmlns="http://www.w3.org/2000/svg">
<path d="M47.9229 64.5879C47.9229 64.8841 47.9001 65.1803 47.8545 65.4766C47.8317 65.7728 47.7747 66.0348 47.6836 66.2627C47.5924 66.4906 47.4557 66.6842 47.2734 66.8438C47.1139 66.9805 46.8975 67.0488 46.624 67.0488C46.2822 67.0488 46.0202 66.9805 45.8379 66.8438C45.6556 66.6842 45.5075 66.4906 45.3936 66.2627C45.3024 66.0348 45.2454 65.7728 45.2227 65.4766C45.1999 65.1803 45.1885 64.8841 45.1885 64.5879V52.7617C45.1885 50.9844 45.0518 49.4349 44.7783 48.1133C44.5049 46.7917 43.9808 45.6979 43.2061 44.832C42.4541 43.9434 41.3945 43.2826 40.0273 42.8496C38.6602 42.4167 36.8828 42.2002 34.6953 42.2002C33.3737 42.2002 31.9495 42.3141 30.4229 42.542C28.8962 42.7471 27.4378 43.123 26.0479 43.6699C24.6807 44.194 23.4616 44.9004 22.3906 45.7891C21.3197 46.6777 20.5791 47.7943 20.1689 49.1387V64.5879C20.1689 64.8841 20.1462 65.1803 20.1006 65.4766C20.0778 65.7728 20.0208 66.0348 19.9297 66.2627C19.8385 66.4906 19.7018 66.6842 19.5195 66.8438C19.36 66.9805 19.1436 67.0488 18.8701 67.0488C18.5511 67.0488 18.2891 66.9805 18.084 66.8438C17.9017 66.6842 17.7536 66.4906 17.6396 66.2627C17.5485 66.0348 17.4915 65.7728 17.4688 65.4766C17.446 65.1803 17.4346 64.8841 17.4346 64.5879V31.3652C17.4346 31.0918 17.446 30.8184 17.4688 30.5449C17.4915 30.2487 17.5485 29.9867 17.6396 29.7588C17.7536 29.5309 17.9017 29.3486 18.084 29.2119C18.2891 29.0524 18.5511 28.9727 18.8701 28.9727C19.1436 28.9727 19.36 29.041 19.5195 29.1777C19.7018 29.3145 19.8385 29.4967 19.9297 29.7246C20.0208 29.9525 20.0778 30.2145 20.1006 30.5107C20.1462 30.7842 20.1689 31.069 20.1689 31.3652V46.7461C20.4196 45.8346 20.8411 45.0371 21.4336 44.3535C22.0488 43.6699 22.7552 43.0889 23.5527 42.6104C24.373 42.109 25.2731 41.7103 26.2529 41.4141C27.2327 41.0951 28.2126 40.8444 29.1924 40.6621C30.195 40.4798 31.1634 40.3545 32.0977 40.2861C33.0547 40.2178 33.9206 40.1836 34.6953 40.1836C37.1562 40.1836 39.2298 40.4001 40.916 40.833C42.6022 41.2432 43.958 41.9382 44.9834 42.918C46.0316 43.8978 46.7835 45.1966 47.2393 46.8145C47.695 48.4095 47.9229 50.3919 47.9229 52.7617V64.5879ZM60.2617 59.3926C60.2617 60.4863 60.5352 61.4092 61.082 62.1611C61.6517 62.9131 62.4378 63.5283 63.4404 64.0068C64.443 64.4854 65.6279 64.8385 66.9951 65.0664C68.3851 65.2715 69.9004 65.374 71.541 65.374C73.5462 65.374 75.3236 65.2373 76.873 64.9639C78.4225 64.6676 79.7783 64.3031 80.9404 63.8701C82.1025 63.4372 83.0824 62.9701 83.8799 62.4688C84.6774 61.9447 85.3382 61.4434 85.8623 60.9648V54.0947C83.5837 53.7757 81.2253 53.4795 78.7871 53.2061C76.349 52.9098 73.888 52.7617 71.4043 52.7617C69.6497 52.7617 68.0775 52.8643 66.6875 53.0693C65.3203 53.2744 64.1582 53.6276 63.2012 54.1289C62.2441 54.6302 61.515 55.3138 61.0137 56.1797C60.5124 57.0228 60.2617 58.0938 60.2617 59.3926ZM74.7881 42.2002C72.6006 42.2002 70.7321 42.2572 69.1826 42.3711C67.6331 42.485 66.3001 42.6331 65.1836 42.8154C64.0898 42.9977 63.167 43.1914 62.415 43.3965C61.6631 43.6016 61.0023 43.8066 60.4326 44.0117C60.1592 44.0117 59.9085 43.875 59.6807 43.6016C59.4528 43.3281 59.3389 43.0319 59.3389 42.7129C59.3389 42.4167 59.4756 42.2002 59.749 42.0635C59.9313 41.9723 60.3529 41.8242 61.0137 41.6191C61.6973 41.4141 62.6429 41.209 63.8506 41.0039C65.0811 40.776 66.5964 40.5824 68.3965 40.4229C70.2194 40.2633 72.3613 40.1836 74.8223 40.1836C75.9844 40.1836 77.1351 40.2633 78.2744 40.4229C79.4137 40.5596 80.4847 40.8216 81.4873 41.209C82.5127 41.5964 83.4583 42.1318 84.3242 42.8154C85.2129 43.499 85.9648 44.3877 86.5801 45.4814C87.2181 46.5524 87.7194 47.8626 88.084 49.4121C88.4486 50.9388 88.6309 52.7389 88.6309 54.8125V64.6562C88.6309 64.9297 88.6195 65.2031 88.5967 65.4766C88.5739 65.75 88.5055 66.012 88.3916 66.2627C88.3005 66.4906 88.1637 66.6842 87.9814 66.8438C87.7992 66.9805 87.5485 67.0488 87.2295 67.0488C86.7054 67.0488 86.3408 66.8096 86.1357 66.3311C85.9535 65.8525 85.8623 65.2487 85.8623 64.5195V62.1611C85.4066 62.7308 84.8141 63.3232 84.085 63.9385C83.3558 64.5537 82.4329 65.1234 81.3164 65.6475C80.1999 66.1488 78.8669 66.5703 77.3174 66.9121C75.7679 67.2311 73.9336 67.3906 71.8145 67.3906C69.832 67.3906 67.9635 67.2425 66.209 66.9463C64.4772 66.6501 62.9619 66.1829 61.6631 65.5449C60.387 64.9069 59.373 64.0866 58.6211 63.084C57.8919 62.0586 57.5273 60.8281 57.5273 59.3926C57.5273 57.7292 57.8691 56.3506 58.5527 55.2568C59.2591 54.1403 60.2275 53.2516 61.458 52.5908C62.6885 51.9072 64.124 51.4287 65.7646 51.1553C67.4281 50.8818 69.2168 50.7451 71.1309 50.7451C72.5664 50.7451 74.002 50.8021 75.4375 50.916C76.8958 51.0072 78.2744 51.1553 79.5732 51.3604C80.8721 51.5426 82.057 51.7819 83.1279 52.0781C84.2217 52.3516 85.1331 52.682 85.8623 53.0693C85.8623 50.7451 85.5547 48.8766 84.9395 47.4639C84.3242 46.0511 83.5039 44.9574 82.4785 44.1826C81.4531 43.3851 80.2682 42.861 78.9238 42.6104C77.6022 42.3369 76.2236 42.2002 74.7881 42.2002ZM117.239 40.1836C119.29 40.1836 121.227 40.4001 123.05 40.833C124.896 41.2432 126.502 41.9609 127.869 42.9863C129.259 44.0117 130.353 45.3789 131.15 47.0879C131.971 48.7969 132.381 50.9388 132.381 53.5137C132.381 56.0658 132.039 58.2305 131.355 60.0078C130.695 61.7624 129.715 63.1865 128.416 64.2803C127.14 65.374 125.556 66.1715 123.665 66.6729C121.797 67.1514 119.655 67.3906 117.239 67.3906C115.394 67.3906 113.696 67.2767 112.146 67.0488C110.597 66.821 109.184 66.5361 107.908 66.1943C106.655 65.8298 105.527 65.431 104.524 64.998C103.522 64.5651 102.633 64.1436 101.858 63.7334L101.79 76.1748C101.79 76.471 101.779 76.7559 101.756 77.0293C101.756 77.3255 101.71 77.5876 101.619 77.8154C101.528 78.0433 101.391 78.2256 101.209 78.3623C101.049 78.499 100.799 78.5674 100.457 78.5674C100.115 78.5674 99.8532 78.4876 99.6709 78.3281C99.5114 78.1914 99.3861 77.9977 99.2949 77.7471C99.2038 77.5192 99.1468 77.2458 99.124 76.9268C99.124 76.6305 99.124 76.3115 99.124 75.9697V42.542C99.124 41.8128 99.2607 41.3571 99.5342 41.1748C99.8076 40.9697 100.104 40.8672 100.423 40.8672C100.81 40.8672 101.118 40.9697 101.346 41.1748C101.574 41.3571 101.688 41.8128 101.688 42.542V47.0537C101.961 46.0967 102.428 45.265 103.089 44.5586C103.75 43.8294 104.524 43.2142 105.413 42.7129C106.302 42.1888 107.259 41.7673 108.284 41.4482C109.332 41.1064 110.381 40.8444 111.429 40.6621C112.5 40.4798 113.536 40.3545 114.539 40.2861C115.542 40.2178 116.442 40.1836 117.239 40.1836ZM117.239 42.2002C115.872 42.223 114.38 42.3369 112.762 42.542C111.144 42.7243 109.594 43.0661 108.113 43.5674C106.632 44.0687 105.322 44.7637 104.183 45.6523C103.043 46.541 102.269 47.7031 101.858 49.1387V62.2637C102.838 62.6283 103.886 63.0042 105.003 63.3916C106.142 63.7562 107.35 64.0866 108.626 64.3828C109.902 64.679 111.258 64.9183 112.693 65.1006C114.129 65.2829 115.644 65.374 117.239 65.374C119.427 65.374 121.295 65.1462 122.845 64.6904C124.417 64.2347 125.704 63.5283 126.707 62.5713C127.732 61.5915 128.473 60.361 128.929 58.8799C129.407 57.376 129.646 55.5872 129.646 53.5137C129.646 51.3717 129.316 49.5716 128.655 48.1133C128.017 46.6549 127.14 45.4928 126.023 44.627C124.907 43.7611 123.585 43.1458 122.059 42.7812C120.555 42.3939 118.948 42.2002 117.239 42.2002ZM160.169 40.1836C162.22 40.1836 164.157 40.4001 165.979 40.833C167.825 41.2432 169.432 41.9609 170.799 42.9863C172.189 44.0117 173.283 45.3789 174.08 47.0879C174.9 48.7969 175.311 50.9388 175.311 53.5137C175.311 56.0658 174.969 58.2305 174.285 60.0078C173.624 61.7624 172.645 63.1865 171.346 64.2803C170.07 65.374 168.486 66.1715 166.595 66.6729C164.726 67.1514 162.584 67.3906 160.169 67.3906C158.323 67.3906 156.626 67.2767 155.076 67.0488C153.527 66.821 152.114 66.5361 150.838 66.1943C149.585 65.8298 148.457 65.431 147.454 64.998C146.451 64.5651 145.563 64.1436 144.788 63.7334L144.72 76.1748C144.72 76.471 144.708 76.7559 144.686 77.0293C144.686 77.3255 144.64 77.5876 144.549 77.8154C144.458 78.0433 144.321 78.2256 144.139 78.3623C143.979 78.499 143.729 78.5674 143.387 78.5674C143.045 78.5674 142.783 78.4876 142.601 78.3281C142.441 78.1914 142.316 77.9977 142.225 77.7471C142.133 77.5192 142.076 77.2458 142.054 76.9268C142.054 76.6305 142.054 76.3115 142.054 75.9697V42.542C142.054 41.8128 142.19 41.3571 142.464 41.1748C142.737 40.9697 143.034 40.8672 143.353 40.8672C143.74 40.8672 144.048 40.9697 144.275 41.1748C144.503 41.3571 144.617 41.8128 144.617 42.542V47.0537C144.891 46.0967 145.358 45.265 146.019 44.5586C146.679 43.8294 147.454 43.2142 148.343 42.7129C149.231 42.1888 150.188 41.7673 151.214 41.4482C152.262 41.1064 153.31 40.8444 154.358 40.6621C155.429 40.4798 156.466 40.3545 157.469 40.2861C158.471 40.2178 159.371 40.1836 160.169 40.1836ZM160.169 42.2002C158.802 42.223 157.309 42.3369 155.691 42.542C154.074 42.7243 152.524 43.0661 151.043 43.5674C149.562 44.0687 148.252 44.7637 147.112 45.6523C145.973 46.541 145.198 47.7031 144.788 49.1387V62.2637C145.768 62.6283 146.816 63.0042 147.933 63.3916C149.072 63.7562 150.28 64.0866 151.556 64.3828C152.832 64.679 154.188 64.9183 155.623 65.1006C157.059 65.2829 158.574 65.374 160.169 65.374C162.356 65.374 164.225 65.1462 165.774 64.6904C167.347 64.2347 168.634 63.5283 169.637 62.5713C170.662 61.5915 171.403 60.361 171.858 58.8799C172.337 57.376 172.576 55.5872 172.576 53.5137C172.576 51.3717 172.246 49.5716 171.585 48.1133C170.947 46.6549 170.07 45.4928 168.953 44.627C167.837 43.7611 166.515 43.1458 164.988 42.7812C163.484 42.3939 161.878 42.2002 160.169 42.2002ZM199.612 76.4482C201.959 76.4482 203.919 76.1862 205.491 75.6621C207.063 75.1608 208.317 74.3177 209.251 73.1328C210.208 71.9707 210.88 70.4098 211.268 68.4502C211.678 66.5133 211.883 64.1094 211.883 61.2383C211.632 62.1725 211.222 62.9701 210.652 63.6309C210.083 64.2917 209.399 64.8499 208.602 65.3057C207.827 65.7614 206.972 66.126 206.038 66.3994C205.127 66.6729 204.192 66.8893 203.235 67.0488C202.278 67.1855 201.333 67.2767 200.398 67.3223C199.487 67.3678 198.644 67.3906 197.869 67.3906C195.408 67.3906 193.335 67.1742 191.648 66.7412C189.962 66.2855 188.595 65.5335 187.547 64.4854C186.499 63.4144 185.735 62.013 185.257 60.2812C184.801 58.5495 184.573 56.3962 184.573 53.8213V43.3281C184.573 43.0319 184.585 42.7357 184.607 42.4395C184.63 42.1432 184.687 41.8812 184.778 41.6533C184.869 41.4255 184.995 41.2432 185.154 41.1064C185.337 40.9469 185.587 40.8672 185.906 40.8672C186.248 40.8672 186.51 40.9469 186.692 41.1064C186.875 41.2432 187.011 41.4255 187.103 41.6533C187.194 41.8812 187.251 42.1432 187.273 42.4395C187.296 42.7357 187.308 43.0319 187.308 43.3281V53.8213C187.308 56.0544 187.444 57.9115 187.718 59.3926C188.014 60.8737 188.549 62.0586 189.324 62.9473C190.099 63.8359 191.17 64.4626 192.537 64.8271C193.927 65.1917 195.704 65.374 197.869 65.374C199.168 65.374 200.558 65.2829 202.039 65.1006C203.52 64.9183 204.922 64.5879 206.243 64.1094C207.588 63.6309 208.761 62.9701 209.764 62.127C210.789 61.2839 211.495 60.1901 211.883 58.8457V43.3281C211.883 43.0319 211.894 42.7357 211.917 42.4395C211.963 42.1432 212.031 41.8812 212.122 41.6533C212.213 41.4255 212.339 41.2432 212.498 41.1064C212.68 40.9469 212.908 40.8672 213.182 40.8672C213.523 40.8672 213.785 40.9469 213.968 41.1064C214.15 41.2432 214.287 41.4255 214.378 41.6533C214.492 41.8812 214.56 42.1432 214.583 42.4395C214.606 42.7357 214.617 43.0319 214.617 43.3281V60.1104C214.617 63.6195 214.332 66.5475 213.763 68.8945C213.216 71.2415 212.339 73.1214 211.131 74.5342C209.923 75.9697 208.374 76.9837 206.482 77.5762C204.591 78.1686 202.301 78.4648 199.612 78.4648C197.698 78.4648 196.08 78.3623 194.759 78.1572C193.46 77.9521 192.355 77.6901 191.443 77.3711C190.555 77.0749 189.814 76.7331 189.222 76.3457C188.629 75.9583 188.117 75.5938 187.684 75.252C187.501 75.0697 187.41 74.8532 187.41 74.6025C187.41 74.2835 187.49 74.0101 187.649 73.7822C187.832 73.5771 188.105 73.4746 188.47 73.4746C188.652 73.4746 188.846 73.543 189.051 73.6797C189.484 73.9987 189.985 74.3177 190.555 74.6367C191.147 74.9785 191.854 75.2747 192.674 75.5254C193.517 75.7988 194.497 76.0153 195.613 76.1748C196.753 76.3571 198.086 76.4482 199.612 76.4482Z" fill="black"/>
<g clip-path="url(#clip0)">
<path d="M94.3127 86.5604C98.1494 79.8309 107.851 79.8309 111.687 86.5604L129.116 117.13C132.917 123.796 128.102 132.083 120.429 132.083H85.5714C77.8975 132.083 73.0833 123.796 76.8841 117.13L94.3127 86.5604Z" fill="#C81B2F"/>
<path d="M66.4615 125.889C62.5392 132.116 53.4608 132.116 49.5385 125.889L31.2819 96.9025C27.0877 90.2433 31.8735 81.5731 39.7435 81.5731L76.2565 81.5731C84.1265 81.5731 88.9123 90.2433 84.7181 96.9025L66.4615 125.889Z" fill="#02A3D4"/>
<path d="M102.75 90.9081C103.386 90.9081 103.857 91.1018 104.161 91.4891C104.465 91.8765 104.701 92.2224 104.867 92.5267L121.053 120.168C121.219 120.445 121.33 120.694 121.385 120.915C121.441 121.164 121.468 121.4 121.468 121.621C121.468 122.091 121.33 122.451 121.053 122.7C120.777 122.977 120.444 123.115 120.057 123.115C119.753 123.115 119.435 123.004 119.103 122.783C118.771 122.589 118.48 122.271 118.231 121.828L102.75 94.3529L87.269 121.828C87.02 122.271 86.7295 122.589 86.3975 122.783C86.0654 123.004 85.7472 123.115 85.4429 123.115C85.0555 123.115 84.7235 122.977 84.4468 122.7C84.1701 122.451 84.0317 122.091 84.0317 121.621C84.0317 121.178 84.1701 120.694 84.4468 120.168L100.633 92.5267C100.827 92.2224 101.09 91.8765 101.422 91.4891C101.754 91.1018 102.197 90.9081 102.75 90.9081Z" fill="black"/>
<g style="mix-blend-mode:multiply">
<rect x="133" y="81.3231" width="50" height="51" rx="10" fill="#FEE041"/>
</g>
<path d="M58.25 122.738C57.6136 122.738 57.1432 122.544 56.8389 122.157C56.5345 121.77 56.2993 121.424 56.1333 121.12L39.9468 93.4779C39.7808 93.2012 39.6701 92.9522 39.6147 92.7308C39.5594 92.4818 39.5317 92.2466 39.5317 92.0253C39.5317 91.5549 39.6701 91.1952 39.9468 90.9462C40.2235 90.6695 40.5555 90.5311 40.9429 90.5311C41.2472 90.5311 41.5654 90.6418 41.8975 90.8632C42.2295 91.0568 42.52 91.375 42.769 91.8177L58.25 119.293L73.731 91.8177C73.98 91.375 74.2705 91.0568 74.6025 90.8632C74.9346 90.6418 75.2528 90.5311 75.5571 90.5311C75.9445 90.5311 76.2765 90.6695 76.5532 90.9462C76.8299 91.1952 76.9683 91.5549 76.9683 92.0253C76.9683 92.468 76.8299 92.9522 76.5532 93.4779L60.3667 121.12C60.173 121.424 59.9102 121.77 59.5781 122.157C59.2461 122.544 58.8034 122.738 58.25 122.738Z" fill="black"/>
<path d="M176.372 120.335C176.372 120.695 176.344 121.054 176.289 121.414C176.233 121.774 176.136 122.092 175.998 122.369C175.887 122.645 175.721 122.88 175.5 123.074C175.279 123.24 175.002 123.323 174.67 123.323C174.255 123.323 173.937 123.24 173.715 123.074C173.522 122.88 173.369 122.645 173.259 122.369C173.148 122.092 173.079 121.774 173.051 121.414C173.051 121.054 173.051 120.695 173.051 120.335V105.974C173.051 103.816 172.885 101.935 172.553 100.33C172.249 98.7251 171.626 97.397 170.686 96.3456C169.772 95.2665 168.486 94.4641 166.826 93.9384C165.193 93.4126 163.049 93.1498 160.393 93.1498C158.76 93.1498 157.031 93.2881 155.205 93.5648C153.378 93.8138 151.635 94.2704 149.975 94.9344C148.315 95.5708 146.848 96.4286 145.576 97.5077C144.303 98.5868 143.417 99.9426 142.919 101.575V120.335C142.919 120.695 142.906 121.054 142.878 121.414C142.85 121.774 142.781 122.092 142.67 122.369C142.56 122.645 142.394 122.88 142.172 123.074C141.979 123.24 141.716 123.323 141.384 123.323C140.996 123.323 140.678 123.24 140.429 123.074C140.208 122.88 140.028 122.645 139.89 122.369C139.779 122.092 139.696 121.774 139.641 121.414C139.613 121.054 139.599 120.695 139.599 120.335V93.4403C139.599 92.9699 139.696 92.5411 139.89 92.1537C140.083 91.7386 140.568 91.5311 141.342 91.5311C142.034 91.5311 142.463 91.7248 142.629 92.1122C142.823 92.4719 142.919 92.9146 142.919 93.4403V98.6698C143.694 96.899 144.773 95.4878 146.157 94.4364C147.54 93.3573 149.048 92.5549 150.681 92.0292C152.341 91.4758 154.015 91.1161 155.703 90.9501C157.418 90.7841 158.981 90.701 160.393 90.701C163.381 90.701 165.885 90.9639 167.905 91.4896C169.952 91.9877 171.599 92.8316 172.844 94.0214C174.117 95.2111 175.016 96.7883 175.542 98.7528C176.095 100.69 176.372 103.097 176.372 105.974V120.335Z" fill="black"/>
</g>
<defs>
<clipPath id="clip0">
<rect width="187" height="84.7073" fill="white" transform="translate(16 54.3231)"/>
</clipPath>
</defs>
</svg>
