<svg width="50" height="50" viewBox="0 0 50 50" fill="none" xmlns="http://www.w3.org/2000/svg">
<mask id="path-1-inside-1" fill="white">
<path fill-rule="evenodd" clip-rule="evenodd" d="M25 50C38.8071 50 50 38.8071 50 25C50 11.1929 38.8071 0 25 0C11.1929 0 0 11.1929 0 25C0 38.8071 11.1929 50 25 50ZM36.7136 13H26.7872C26.1055 13 25.1509 13.3789 24.6695 13.8402L12.3623 25.6327C12.1303 25.8561 12 26.1584 12 26.4736C12 26.7888 12.1303 27.0912 12.3623 27.3146L23.0151 37.5219C23.2482 37.7442 23.5638 37.8691 23.8928 37.8691C24.2217 37.8691 24.5373 37.7442 24.7704 37.5219L37.0776 25.7294C37.5607 25.2665 37.9544 24.3534 37.9544 23.7003V14.1889C37.9531 13.874 37.822 13.5723 37.5896 13.3496C37.3572 13.1269 37.0423 13.0013 36.7136 13ZM30.5096 22.5114C30.1836 22.5113 29.8608 22.4496 29.5597 22.33C29.2585 22.2104 28.9849 22.0351 28.7545 21.8141C28.524 21.5932 28.3413 21.3309 28.2166 21.0423C28.092 20.7536 28.0279 20.4443 28.028 20.1319C28.0281 19.8196 28.0924 19.5103 28.2172 19.2217C28.3421 18.9332 28.525 18.671 28.7556 18.4502C28.9862 18.2294 29.26 18.0543 29.5612 17.9349C29.8624 17.8154 30.1852 17.754 30.5112 17.7541C31.1696 17.7543 31.801 18.0051 32.2663 18.4513C32.7317 18.8976 32.9931 19.5027 32.9929 20.1335C32.9926 20.7644 32.7309 21.3693 32.2652 21.8152C31.7995 22.2612 31.168 22.5116 30.5096 22.5114Z"/>
</mask>
<path fill-rule="evenodd" clip-rule="evenodd" d="M25 50C38.8071 50 50 38.8071 50 25C50 11.1929 38.8071 0 25 0C11.1929 0 0 11.1929 0 25C0 38.8071 11.1929 50 25 50ZM36.7136 13H26.7872C26.1055 13 25.1509 13.3789 24.6695 13.8402L12.3623 25.6327C12.1303 25.8561 12 26.1584 12 26.4736C12 26.7888 12.1303 27.0912 12.3623 27.3146L23.0151 37.5219C23.2482 37.7442 23.5638 37.8691 23.8928 37.8691C24.2217 37.8691 24.5373 37.7442 24.7704 37.5219L37.0776 25.7294C37.5607 25.2665 37.9544 24.3534 37.9544 23.7003V14.1889C37.9531 13.874 37.822 13.5723 37.5896 13.3496C37.3572 13.1269 37.0423 13.0013 36.7136 13ZM30.5096 22.5114C30.1836 22.5113 29.8608 22.4496 29.5597 22.33C29.2585 22.2104 28.9849 22.0351 28.7545 21.8141C28.524 21.5932 28.3413 21.3309 28.2166 21.0423C28.092 20.7536 28.0279 20.4443 28.028 20.1319C28.0281 19.8196 28.0924 19.5103 28.2172 19.2217C28.3421 18.9332 28.525 18.671 28.7556 18.4502C28.9862 18.2294 29.26 18.0543 29.5612 17.9349C29.8624 17.8154 30.1852 17.754 30.5112 17.7541C31.1696 17.7543 31.801 18.0051 32.2663 18.4513C32.7317 18.8976 32.9931 19.5027 32.9929 20.1335C32.9926 20.7644 32.7309 21.3693 32.2652 21.8152C31.7995 22.2612 31.168 22.5116 30.5096 22.5114Z" fill="white"/>
<path d="M36.7136 13L36.7174 12H36.7136V13ZM24.6695 13.8402L23.9777 13.1181L24.6695 13.8402ZM12.3623 25.6327L11.6705 24.9106L11.6688 24.9123L12.3623 25.6327ZM12.3623 27.3146L11.6688 28.035L11.6705 28.0366L12.3623 27.3146ZM23.0151 37.5219L22.3232 38.2439L22.3249 38.2455L23.0151 37.5219ZM24.7704 37.5219L25.4606 38.2455L25.4623 38.2439L24.7704 37.5219ZM37.0776 25.7294L37.7694 26.4514V26.4514L37.0776 25.7294ZM37.9544 14.1889H38.9544L38.9544 14.1848L37.9544 14.1889ZM37.5896 13.3496L36.8977 14.0717V14.0717L37.5896 13.3496ZM30.5096 22.5114L30.5093 23.5114H30.5093L30.5096 22.5114ZM28.2166 21.0423L27.2986 21.4387L27.2986 21.4387L28.2166 21.0423ZM28.028 20.1319L29.028 20.1323V20.1323L28.028 20.1319ZM28.2172 19.2217L27.2995 18.8246L27.2995 18.8246L28.2172 19.2217ZM29.5612 17.9349L29.9298 18.8644L29.9298 18.8644L29.5612 17.9349ZM30.5112 17.7541L30.5109 18.7541H30.5109L30.5112 17.7541ZM32.2663 18.4513L31.5743 19.1732L32.2663 18.4513ZM32.9929 20.1335L31.9929 20.1332L32.9929 20.1335ZM32.2652 21.8152L32.9568 22.5375V22.5375L32.2652 21.8152ZM49 25C49 38.2548 38.2548 49 25 49V51C39.3594 51 51 39.3594 51 25H49ZM25 1C38.2548 1 49 11.7452 49 25H51C51 10.6406 39.3594 -1 25 -1V1ZM1 25C1 11.7452 11.7452 1 25 1V-1C10.6406 -1 -1 10.6406 -1 25H1ZM25 49C11.7452 49 1 38.2548 1 25H-1C-1 39.3594 10.6406 51 25 51V49ZM26.7872 14H36.7136V12H26.7872V14ZM25.3614 14.5622C25.4801 14.4484 25.7146 14.2986 26.0221 14.1766C26.3283 14.0551 26.6092 14 26.7872 14V12C26.2835 12 25.7463 12.1343 25.2844 12.3176C24.8239 12.5004 24.3404 12.7706 23.9777 13.1181L25.3614 14.5622ZM13.0542 26.3547L25.3614 14.5622L23.9777 13.1181L11.6705 24.9106L13.0542 26.3547ZM13 26.4736C13 26.4369 13.0148 26.3927 13.0559 26.3531L11.6688 24.9123C11.2458 25.3195 11 25.88 11 26.4736H13ZM13.0559 26.5942C13.0148 26.5546 13 26.5104 13 26.4736H11C11 27.0673 11.2458 27.6278 11.6688 28.035L13.0559 26.5942ZM23.7069 36.7998L13.0542 26.5926L11.6705 28.0366L22.3232 38.2439L23.7069 36.7998ZM23.8928 36.8691C23.8148 36.8691 23.7481 36.8391 23.7053 36.7982L22.3249 38.2455C22.7484 38.6494 23.3128 38.8691 23.8928 38.8691V36.8691ZM24.0803 36.7982C24.0374 36.8391 23.9707 36.8691 23.8928 36.8691V38.8691C24.4727 38.8691 25.0371 38.6494 25.4606 38.2455L24.0803 36.7982ZM36.3857 25.0073L24.0786 36.7998L25.4623 38.2439L37.7694 26.4514L36.3857 25.0073ZM36.9544 23.7003C36.9544 23.8498 36.9028 24.1034 36.7791 24.3897C36.656 24.6747 36.5039 24.8941 36.3857 25.0073L37.7694 26.4514C38.1344 26.1017 38.4207 25.6332 38.6152 25.1826C38.8092 24.7334 38.9544 24.2039 38.9544 23.7003H36.9544ZM36.9544 14.1889V23.7003H38.9544V14.1889H36.9544ZM36.8977 14.0717C36.9392 14.1114 36.9543 14.156 36.9544 14.1931L38.9544 14.1848C38.952 13.592 38.7048 13.0332 38.2814 12.6276L36.8977 14.0717ZM36.7098 14C36.788 14.0003 36.8548 14.0306 36.8977 14.0717L38.2814 12.6276C37.8595 12.2233 37.2966 12.0022 36.7174 12L36.7098 14ZM29.1905 23.2593C29.6097 23.4259 30.0577 23.5112 30.5093 23.5114L30.5099 21.5114C30.3094 21.5113 30.1119 21.4734 29.9289 21.4006L29.1905 23.2593ZM28.0624 22.5359C28.3875 22.8476 28.7711 23.0928 29.1905 23.2593L29.9289 21.4006C29.7459 21.328 29.5824 21.2225 29.4466 21.0923L28.0624 22.5359ZM27.2986 21.4387C27.4769 21.8517 27.7372 22.2241 28.0624 22.5359L29.4466 21.0923C29.3108 20.9622 29.2056 20.8101 29.1347 20.6458L27.2986 21.4387ZM27.028 20.1316C27.0278 20.5814 27.1202 21.0257 27.2986 21.4387L29.1347 20.6458C29.0638 20.4816 29.0279 20.3073 29.028 20.1323L27.028 20.1316ZM27.2995 18.8246C27.1208 19.2376 27.0281 19.6818 27.028 20.1316L29.028 20.1323C29.028 19.9573 29.064 19.783 29.135 19.6188L27.2995 18.8246ZM28.064 17.7279C27.7387 18.0395 27.4781 18.4118 27.2995 18.8246L29.135 19.6189C29.2061 19.4546 29.3114 19.3025 29.4472 19.1725L28.064 17.7279ZM29.1926 17.0053C28.7732 17.1716 28.3893 17.4165 28.064 17.7279L29.4472 19.1725C29.5831 19.0424 29.7468 18.937 29.9298 18.8644L29.1926 17.0053ZM30.5116 16.7541C30.06 16.754 29.612 16.839 29.1926 17.0053L29.9298 18.8644C30.1129 18.7919 30.3105 18.754 30.5109 18.7541L30.5116 16.7541ZM32.9584 17.7295C32.3026 17.1007 31.4217 16.7544 30.5116 16.7541L30.5109 18.7541C30.9175 18.7542 31.2993 18.9095 31.5743 19.1732L32.9584 17.7295ZM33.9929 20.1339C33.9932 19.2237 33.6157 18.3598 32.9584 17.7295L31.5743 19.1732C31.8478 19.4354 31.993 19.7817 31.9929 20.1332L33.9929 20.1339ZM32.9568 22.5375C33.6145 21.9077 33.9925 21.0441 33.9929 20.1339L31.9929 20.1332C31.9927 20.4847 31.8473 20.8309 31.5736 21.093L32.9568 22.5375ZM30.5093 23.5114C31.4194 23.5117 32.3005 23.1659 32.9568 22.5375L31.5736 21.093C31.2984 21.3564 30.9165 21.5115 30.5099 21.5114L30.5093 23.5114Z" fill="#26929A" mask="url(#path-1-inside-1)"/>
</svg>
