<svg width="50" height="50" viewBox="0 0 50 50" fill="none" xmlns="http://www.w3.org/2000/svg">
<rect width="50" height="50" rx="25" fill="#FF774E"/>
<path d="M24.9989 23.5774C25.9663 23.5774 26.912 23.2906 27.7164 22.7531C28.5208 22.2157 29.1478 21.4518 29.518 20.558C29.8883 19.6642 29.9852 18.6808 29.7965 17.7319C29.6078 16.7831 29.142 15.9115 28.458 15.2274C27.774 14.5433 26.9025 14.0773 25.9537 13.8885C25.0049 13.6997 24.0214 13.7965 23.1275 14.1666C22.2337 14.5367 21.4697 15.1635 20.9322 15.9678C20.3946 16.7721 20.1076 17.7178 20.1074 18.6852C20.1086 19.9822 20.6243 21.2258 21.5414 22.1429C22.4584 23.0601 23.7019 23.576 24.9989 23.5774ZM24.9989 15.2937C25.6697 15.2937 26.3254 15.4926 26.8831 15.8653C27.4409 16.2379 27.8756 16.7676 28.1323 17.3873C28.389 18.007 28.4561 18.6889 28.3253 19.3468C28.1944 20.0047 27.8714 20.609 27.3971 21.0833C26.9228 21.5576 26.3185 21.8807 25.6606 22.0115C25.0027 22.1424 24.3208 22.0752 23.7011 21.8185C23.0813 21.5618 22.5517 21.1271 22.179 20.5694C21.8063 20.0117 21.6074 19.356 21.6074 18.6852C21.6082 17.7859 21.9658 16.9238 22.6016 16.2879C23.2375 15.6521 24.0997 15.2945 24.9989 15.2937Z" fill="white"/>
<path d="M24.9969 25.5C20.0161 25.5 15.9639 29.9843 15.9639 35.4968C15.9639 35.6957 16.0429 35.8864 16.1835 36.0271C16.3242 36.1677 16.515 36.2468 16.7139 36.2468C16.9128 36.2468 17.1035 36.1677 17.2442 36.0271C17.3848 35.8864 17.4639 35.6957 17.4639 35.4968C17.4639 30.8115 20.8426 27 24.9969 27C29.1511 27 32.5299 30.8115 32.5299 35.4968C32.5299 35.6957 32.6089 35.8864 32.7495 36.0271C32.8902 36.1677 33.0809 36.2468 33.2799 36.2468C33.4788 36.2468 33.6695 36.1677 33.8102 36.0271C33.9508 35.8864 34.0299 35.6957 34.0299 35.4968C34.0299 29.9843 29.9776 25.5 24.9969 25.5Z" fill="white"/>
</svg>
