<svg width="50" height="50" viewBox="0 0 50 50" fill="none" xmlns="http://www.w3.org/2000/svg">
<rect x="0.5" y="0.5" width="49" height="49" rx="24.5" fill="white" stroke="#26929A"/>
<g clip-path="url(#clip0)">
<path d="M24.8711 35.1769C24.5863 35.1769 24.3118 35.0737 24.0979 34.8864C23.29 34.1799 22.511 33.516 21.8237 32.9303L21.8202 32.9273C19.8053 31.2102 18.0654 29.7274 16.8547 28.2666C15.5014 26.6336 14.8711 25.0853 14.8711 23.3939C14.8711 21.7505 15.4346 20.2344 16.4577 19.1246C17.493 18.0017 18.9136 17.3833 20.4582 17.3833C21.6127 17.3833 22.67 17.7483 23.6006 18.468C24.0703 18.8314 24.496 19.276 24.8711 19.7946C25.2463 19.276 25.6719 18.8314 26.1417 18.468C27.0723 17.7483 28.1296 17.3833 29.2841 17.3833C30.8286 17.3833 32.2493 18.0017 33.2846 19.1246C34.3077 20.2344 34.8711 21.7505 34.8711 23.3939C34.8711 25.0853 34.2409 26.6336 32.8876 28.2665C31.6769 29.7274 29.9371 31.2101 27.9225 32.927C27.234 33.5135 26.4539 34.1785 25.6441 34.8867C25.4303 35.0737 25.1557 35.1769 24.8711 35.1769ZM20.4582 18.5549C19.2447 18.5549 18.1299 19.0392 17.3189 19.9187C16.4958 20.8115 16.0425 22.0456 16.0425 23.3939C16.0425 24.8165 16.5712 26.0887 17.7567 27.5191C18.9025 28.9017 20.6067 30.354 22.58 32.0357L22.5836 32.0388C23.2735 32.6267 24.0555 33.2932 24.8694 34.0049C25.6882 33.2918 26.4714 32.6242 27.1626 32.0354C29.1357 30.3537 30.8398 28.9017 31.9856 27.5191C33.1709 26.0887 33.6996 24.8165 33.6996 23.3939C33.6996 22.0456 33.2463 20.8115 32.4232 19.9187C31.6124 19.0392 30.4974 18.5549 29.2841 18.5549C28.3951 18.5549 27.5789 18.8375 26.8582 19.3947C26.216 19.8915 25.7686 20.5196 25.5063 20.959C25.3714 21.185 25.134 21.3199 24.8711 21.3199C24.6082 21.3199 24.3707 21.185 24.2359 20.959C23.9737 20.5196 23.5263 19.8915 22.8839 19.3947C22.1633 18.8375 21.3471 18.5549 20.4582 18.5549Z" fill="#26929A"/>
</g>
<defs>
<clipPath id="clip0">
<rect width="20" height="20" fill="white" transform="translate(14.8711 16.2896)"/>
</clipPath>
</defs>
</svg>
