<svg width="50" height="50" viewBox="0 0 50 50" fill="none" xmlns="http://www.w3.org/2000/svg">
<path d="M0.5 25C0.5 11.4686 11.4686 0.5 25 0.5C38.5314 0.5 49.5 11.4686 49.5 25C49.5 38.5314 38.5314 49.5 25 49.5C11.4686 49.5 0.5 38.5314 0.5 25ZM28 15C28 14.2043 27.6839 13.4413 27.1213 12.8787C26.5587 12.3161 25.7957 12 25 12C24.2043 12 23.4413 12.3161 22.8787 12.8787C22.3161 13.4413 22 14.2043 22 15C22 15.7957 22.3161 16.5587 22.8787 17.1213C23.4413 17.6839 24.2043 18 25 18C25.7957 18 26.5587 17.6839 27.1213 17.1213C27.6839 16.5587 28 15.7957 28 15ZM25 38C25.7956 38 26.5587 37.6839 27.1213 37.1213C27.6839 36.5587 28 35.7957 28 35V25C28 24.2043 27.6839 23.4413 27.1213 22.8787C26.5587 22.3161 25.7957 22 25 22C24.2043 22 23.4413 22.3161 22.8787 22.8787C22.3161 23.4413 22 24.2043 22 25V35C22 35.7957 22.3161 36.5587 22.8787 37.1213C23.4413 37.6839 24.2044 38 25 38Z" fill="white" stroke="#26929A"/>
</svg>
