<svg width="84" height="84" viewBox="0 0 84 84" fill="none" xmlns="http://www.w3.org/2000/svg">
<path d="M74.1997 63.7247H82.5997V48.3247L69.9997 28.7246H54.5996V63.7247H60.1996" fill="#FF774E"/>
<path d="M12.6004 63.7239H1.40039V18.9238H54.6004V63.7239H26.6004" fill="#FF774E"/>
<path d="M9.80039 56.7246H1.40039V59.5247H9.80039V56.7246Z" fill="#F46B27"/>
<path d="M54.6004 56.7246H29.4004V59.5247H54.6004V56.7246Z" fill="#F46B27"/>
<path d="M82.5999 56.7246H77V59.5247H82.5999V56.7246Z" fill="#DBDBDB"/>
<path d="M54.5997 23.125H5.59961V25.9251H54.5997V23.125Z" fill="#F46B27"/>
<path d="M19.5997 70.7247C23.4657 70.7247 26.5997 67.5907 26.5997 63.7247C26.5997 59.8586 23.4657 56.7246 19.5997 56.7246C15.7336 56.7246 12.5996 59.8586 12.5996 63.7247C12.5996 67.5907 15.7336 70.7247 19.5997 70.7247Z" fill="#00CDDC"/>
<path d="M67.1993 70.7247C71.0653 70.7247 74.1993 67.5907 74.1993 63.7247C74.1993 59.8586 71.0653 56.7246 67.1993 56.7246C63.3332 56.7246 60.1992 59.8586 60.1992 63.7247C60.1992 67.5907 63.3332 70.7247 67.1993 70.7247Z" fill="#00CDDC"/>
<path d="M20.9993 62.3242H18.1992V65.1243H20.9993V62.3242Z" fill="#DBDBDB"/>
<path d="M68.6008 62.3242H65.8008V65.1243H68.6008V62.3242Z" fill="#DBDBDB"/>
<path d="M25.1997 11.9229H5.59961V14.7229H25.1997V11.9229Z" fill="#DBDBDB"/>
<path d="M2.80005 11.9229H0V14.7229H2.80005V11.9229Z" fill="#DBDBDB"/>
<path d="M73.5972 34.3242H60.1992V46.9242H81.7032L73.5972 34.3242Z" fill="#00CDDC"/>
<path d="M71.1761 27.9683C70.9185 27.5678 70.476 27.3257 70.0001 27.3244H56.0001V18.9244C56.0001 18.1516 55.3729 17.5244 54.6002 17.5244H1.39995C0.627211 17.5244 0 18.1516 0 18.9244V63.7244C0 64.4971 0.627211 65.1244 1.39995 65.1244H11.3259C12.1267 69.694 16.4793 72.7488 21.0489 71.9493C24.5334 71.3389 27.2634 68.6104 27.8739 65.1244H58.9258C59.7266 69.694 64.0792 72.7488 68.6488 71.9493C72.1334 71.3389 74.8634 68.6104 75.4738 65.1244H82.5999C83.3726 65.1244 83.9998 64.4971 83.9998 63.7244V48.3244C83.9998 48.0556 83.9214 47.7938 83.7759 47.5684L71.1761 27.9683ZM72.7999 35.7244L79.1419 45.5243H61.6001V35.7244H72.7999ZM19.6001 69.3243C16.5075 69.3243 14.0001 66.817 14.0001 63.7244C14.0001 60.6318 16.5075 58.1245 19.6001 58.1245C22.6926 58.1245 25.2 60.6318 25.2 63.7244C25.2 66.817 22.6926 69.3243 19.6001 69.3243ZM19.6001 55.3244C15.5036 55.3287 12.0092 58.2854 11.3261 62.3245H2.80005V59.5244H9.80011V56.7244H2.80005V20.3243H53.2001V23.1244H5.59995V25.9244H53.1999V56.7244H29.4V59.5244H53.2001V62.3245H27.8741C27.1907 58.2867 23.6964 55.3285 19.6001 55.3244ZM67.2 69.3243C64.1074 69.3243 61.6001 66.817 61.6001 63.7244C61.6001 60.6318 64.1074 58.1245 67.2 58.1245C70.2926 58.1245 72.7999 60.6318 72.7999 63.7244C72.7999 66.817 70.2926 69.3243 67.2 69.3243ZM75.474 62.3243C74.6732 57.7547 70.3206 54.6998 65.751 55.4993C62.2665 56.1098 59.5365 58.8383 58.926 62.3243H55.9999V30.1244H69.2299L71.0359 32.9245H60.1999C59.4272 32.9245 58.8 33.5517 58.8 34.3244V46.9244C58.8 47.6971 59.4272 48.3244 60.1999 48.3244H80.934L81.2 48.7304V56.7244H76.9999V59.5244H81.2V62.3245H75.474V62.3243Z" fill="#330000"/>
<path d="M20.9993 62.3242H18.1992V65.1243H20.9993V62.3242Z" fill="#330000"/>
<path d="M68.6008 62.3242H65.8008V65.1243H68.6008V62.3242Z" fill="#330000"/>
<path d="M25.1997 11.9229H5.59961V14.7229H25.1997V11.9229Z" fill="#330000"/>
<path d="M2.80005 11.9229H0V14.7229H2.80005V11.9229Z" fill="black"/>
</svg>
